<mxfile host="65bd71144e">
    <diagram id="4gxERi4FZI7c4kkd1-Vf" name="workflow">
        <mxGraphModel dx="1514" dy="874" grid="1" gridSize="10" guides="1" tooltips="1" connect="1" arrows="1" fold="1" page="0" pageScale="1" pageWidth="850" pageHeight="1100" math="0" shadow="0">
            <root>
                <mxCell id="0"/>
                <mxCell id="1" parent="0"/>
                <mxCell id="2" value="load_dataset()" style="swimlane;childLayout=stackLayout;resizeParent=1;resizeParentMax=0;startSize=20;html=1;" parent="1" vertex="1">
                    <mxGeometry x="200" y="110" width="1240" height="620" as="geometry">
                        <mxRectangle x="230" y="120" width="70" height="30" as="alternateBounds"/>
                    </mxGeometry>
                </mxCell>
                <mxCell id="3" value="load.py" style="swimlane;startSize=20;html=1;" parent="2" vertex="1">
                    <mxGeometry y="20" width="310" height="600" as="geometry"/>
                </mxCell>
                <mxCell id="5" value="load_dataset()" style="rounded=0;whiteSpace=wrap;html=1;" parent="3" vertex="1">
                    <mxGeometry x="40" y="40" width="230" height="40" as="geometry"/>
                </mxCell>
                <mxCell id="15" value="data_loader_manager.py" style="swimlane;startSize=20;html=1;" parent="2" vertex="1">
                    <mxGeometry x="310" y="20" width="310" height="600" as="geometry"/>
                </mxCell>
                <mxCell id="7" value="LocalDataLoaderManager" style="rounded=0;whiteSpace=wrap;html=1;" parent="15" vertex="1">
                    <mxGeometry x="40" y="40" width="230" height="40" as="geometry"/>
                </mxCell>
                <mxCell id="sadyCBLedYbKWUH_rdO8-134" value="" style="edgeStyle=orthogonalEdgeStyle;rounded=1;html=1;" parent="15" source="sadyCBLedYbKWUH_rdO8-110" target="sadyCBLedYbKWUH_rdO8-133" edge="1">
                    <mxGeometry relative="1" as="geometry"/>
                </mxCell>
                <mxCell id="sadyCBLedYbKWUH_rdO8-110" value="RemoteDataLoaderManager" style="rounded=0;whiteSpace=wrap;html=1;" parent="15" vertex="1">
                    <mxGeometry x="40" y="140" width="230" height="40" as="geometry"/>
                </mxCell>
                <mxCell id="-8AQMluYz5d1bTwO63Y4-118" value="" style="edgeStyle=orthogonalEdgeStyle;html=1;" edge="1" parent="15" source="sadyCBLedYbKWUH_rdO8-133" target="-8AQMluYz5d1bTwO63Y4-117">
                    <mxGeometry relative="1" as="geometry"/>
                </mxCell>
                <mxCell id="sadyCBLedYbKWUH_rdO8-133" value="_load_dataset_builder()" style="rounded=0;whiteSpace=wrap;html=1;" parent="15" vertex="1">
                    <mxGeometry x="40" y="240" width="230" height="40" as="geometry"/>
                </mxCell>
                <mxCell id="-8AQMluYz5d1bTwO63Y4-117" value="_build()" style="rounded=0;whiteSpace=wrap;html=1;" vertex="1" parent="15">
                    <mxGeometry x="40" y="360" width="230" height="40" as="geometry"/>
                </mxCell>
                <mxCell id="sadyCBLedYbKWUH_rdO8-116" value="" style="edgeStyle=orthogonalEdgeStyle;html=1;exitX=1;exitY=0.5;exitDx=0;exitDy=0;entryX=1;entryY=0.5;entryDx=0;entryDy=0;" parent="15" source="7" target="sadyCBLedYbKWUH_rdO8-133" edge="1">
                    <mxGeometry relative="1" as="geometry">
                        <mxPoint x="330" y="90.00000000000023" as="sourcePoint"/>
                        <mxPoint x="350" y="60" as="targetPoint"/>
                    </mxGeometry>
                </mxCell>
                <mxCell id="4" value="" style="edgeStyle=orthogonalEdgeStyle;rounded=0;orthogonalLoop=1;jettySize=auto;html=1;" parent="2" source="5" target="7" edge="1">
                    <mxGeometry relative="1" as="geometry"/>
                </mxCell>
                <mxCell id="YmRYm2_zLs4sTc8rYiAN-159" value="dataset_builder.py" style="swimlane;startSize=20;html=1;" parent="2" vertex="1">
                    <mxGeometry x="620" y="20" width="310" height="600" as="geometry"/>
                </mxCell>
                <mxCell id="115" value="" style="rounded=0;whiteSpace=wrap;html=1;dashed=1;" parent="YmRYm2_zLs4sTc8rYiAN-159" vertex="1">
                    <mxGeometry x="30" y="90" width="250" height="290" as="geometry"/>
                </mxCell>
                <mxCell id="sadyCBLedYbKWUH_rdO8-226" value="" style="edgeStyle=none;rounded=1;html=1;fontFamily=Helvetica;fontSize=12;" parent="YmRYm2_zLs4sTc8rYiAN-159" source="sadyCBLedYbKWUH_rdO8-171" target="sadyCBLedYbKWUH_rdO8-180" edge="1">
                    <mxGeometry relative="1" as="geometry"/>
                </mxCell>
                <mxCell id="sadyCBLedYbKWUH_rdO8-171" value="&lt;div style=&quot;background-color: rgb(255, 255, 255);&quot;&gt;&lt;font style=&quot;font-size: 12px;&quot;&gt;DatasetBuilder&lt;/font&gt;&lt;/div&gt;" style="rounded=0;whiteSpace=wrap;html=1;" parent="YmRYm2_zLs4sTc8rYiAN-159" vertex="1">
                    <mxGeometry x="40" y="320" width="230" height="40" as="geometry"/>
                </mxCell>
                <mxCell id="sadyCBLedYbKWUH_rdO8-225" value="" style="edgeStyle=orthogonalEdgeStyle;rounded=1;html=1;fontFamily=Helvetica;fontSize=12;" parent="YmRYm2_zLs4sTc8rYiAN-159" source="sadyCBLedYbKWUH_rdO8-180" target="sadyCBLedYbKWUH_rdO8-224" edge="1">
                    <mxGeometry relative="1" as="geometry"/>
                </mxCell>
                <mxCell id="sadyCBLedYbKWUH_rdO8-180" value="&lt;div style=&quot;background-color: rgb(255, 255, 255);&quot;&gt;&lt;font style=&quot;font-size: 12px;&quot;&gt;DatasetBuilder::download_and_prepare&lt;/font&gt;&lt;/div&gt;" style="rounded=0;whiteSpace=wrap;html=1;" parent="YmRYm2_zLs4sTc8rYiAN-159" vertex="1">
                    <mxGeometry x="40" y="440" width="230" height="40" as="geometry"/>
                </mxCell>
                <mxCell id="sadyCBLedYbKWUH_rdO8-224" value="&lt;div style=&quot;background-color: rgb(255, 255, 255);&quot;&gt;&lt;font style=&quot;font-size: 12px;&quot;&gt;DatasetBuilder::as_dataset&lt;/font&gt;&lt;/div&gt;" style="rounded=0;whiteSpace=wrap;html=1;" parent="YmRYm2_zLs4sTc8rYiAN-159" vertex="1">
                    <mxGeometry x="40" y="520" width="230" height="40" as="geometry"/>
                </mxCell>
                <mxCell id="sadyCBLedYbKWUH_rdO8-139" value="Csv" style="rounded=0;whiteSpace=wrap;html=1;" parent="YmRYm2_zLs4sTc8rYiAN-159" vertex="1">
                    <mxGeometry x="40" y="120" width="230" height="40" as="geometry"/>
                </mxCell>
                <mxCell id="sadyCBLedYbKWUH_rdO8-140" value="Json" style="rounded=0;whiteSpace=wrap;html=1;" parent="YmRYm2_zLs4sTc8rYiAN-159" vertex="1">
                    <mxGeometry x="40" y="160" width="230" height="40" as="geometry"/>
                </mxCell>
                <mxCell id="sadyCBLedYbKWUH_rdO8-169" value="Arrow" style="rounded=0;whiteSpace=wrap;html=1;" parent="YmRYm2_zLs4sTc8rYiAN-159" vertex="1">
                    <mxGeometry x="40" y="200" width="230" height="40" as="geometry"/>
                </mxCell>
                <mxCell id="sadyCBLedYbKWUH_rdO8-170" value="&lt;div style=&quot;background-color: rgb(255, 255, 255);&quot;&gt;&lt;font style=&quot;font-size: 12px;&quot;&gt;Chunk&lt;/font&gt;&lt;/div&gt;" style="rounded=0;whiteSpace=wrap;html=1;strokeColor=#000000;" parent="YmRYm2_zLs4sTc8rYiAN-159" vertex="1">
                    <mxGeometry x="40" y="240" width="230" height="40" as="geometry"/>
                </mxCell>
                <mxCell id="-8AQMluYz5d1bTwO63Y4-139" value="&lt;b&gt;...&lt;/b&gt;" style="rounded=0;whiteSpace=wrap;html=1;" vertex="1" parent="YmRYm2_zLs4sTc8rYiAN-159">
                    <mxGeometry x="40" y="280" width="230" height="40" as="geometry"/>
                </mxCell>
                <mxCell id="sadyCBLedYbKWUH_rdO8-112" value="" style="edgeStyle=orthogonalEdgeStyle;rounded=1;orthogonalLoop=1;jettySize=auto;html=1;entryX=0;entryY=0.5;entryDx=0;entryDy=0;exitX=1;exitY=0.5;exitDx=0;exitDy=0;" parent="2" source="5" target="sadyCBLedYbKWUH_rdO8-110" edge="1">
                    <mxGeometry relative="1" as="geometry">
                        <mxPoint x="320" y="80" as="sourcePoint"/>
                        <mxPoint x="525" y="90.00000000000023" as="targetPoint"/>
                        <Array as="points">
                            <mxPoint x="300" y="80"/>
                            <mxPoint x="300" y="180"/>
                        </Array>
                    </mxGeometry>
                </mxCell>
                <mxCell id="sadyCBLedYbKWUH_rdO8-181" value="" style="edgeStyle=orthogonalEdgeStyle;rounded=1;html=1;fontFamily=Helvetica;fontSize=12;entryX=1;entryY=0.5;entryDx=0;entryDy=0;exitX=0;exitY=0.5;exitDx=0;exitDy=0;" parent="2" source="110" target="sadyCBLedYbKWUH_rdO8-180" edge="1">
                    <mxGeometry relative="1" as="geometry"/>
                </mxCell>
                <mxCell id="sadyCBLedYbKWUH_rdO8-136" value="download_manager.py" style="swimlane;startSize=20;html=1;" parent="2" vertex="1">
                    <mxGeometry x="930" y="20" width="310" height="600" as="geometry"/>
                </mxCell>
                <mxCell id="110" value="" style="rounded=0;whiteSpace=wrap;html=1;dashed=1;" parent="sadyCBLedYbKWUH_rdO8-136" vertex="1">
                    <mxGeometry x="30" y="140" width="250" height="420" as="geometry"/>
                </mxCell>
                <mxCell id="sadyCBLedYbKWUH_rdO8-168" value="DownloadManager" style="rounded=0;whiteSpace=wrap;html=1;" parent="sadyCBLedYbKWUH_rdO8-136" vertex="1">
                    <mxGeometry x="40" y="160" width="230" height="40" as="geometry"/>
                </mxCell>
                <mxCell id="FXwiGHXvkyKXjon357Kn-110" value="DataDownloadManager" style="rounded=0;whiteSpace=wrap;html=1;" parent="sadyCBLedYbKWUH_rdO8-136" vertex="1">
                    <mxGeometry x="40" y="200" width="230" height="40" as="geometry"/>
                </mxCell>
                <mxCell id="FXwiGHXvkyKXjon357Kn-111" value="StreamingDownloadManager" style="rounded=0;whiteSpace=wrap;html=1;" parent="sadyCBLedYbKWUH_rdO8-136" vertex="1">
                    <mxGeometry x="40" y="240" width="230" height="40" as="geometry"/>
                </mxCell>
                <mxCell id="-8AQMluYz5d1bTwO63Y4-177" value="" style="rounded=0;whiteSpace=wrap;html=1;" vertex="1" parent="sadyCBLedYbKWUH_rdO8-136">
                    <mxGeometry x="35" y="299" width="240" height="247" as="geometry"/>
                </mxCell>
                <mxCell id="-8AQMluYz5d1bTwO63Y4-181" value="&lt;span style=&quot;font-size: 12px;&quot;&gt;Backend&lt;/span&gt;" style="text;html=1;align=center;verticalAlign=middle;resizable=0;points=[];autosize=1;strokeColor=none;fillColor=none;fontSize=18;" vertex="1" parent="sadyCBLedYbKWUH_rdO8-136">
                    <mxGeometry x="120" y="290" width="70" height="40" as="geometry"/>
                </mxCell>
                <mxCell id="-8AQMluYz5d1bTwO63Y4-183" value="" style="group" vertex="1" connectable="0" parent="sadyCBLedYbKWUH_rdO8-136">
                    <mxGeometry x="40" y="330" width="230" height="200" as="geometry"/>
                </mxCell>
                <mxCell id="-8AQMluYz5d1bTwO63Y4-182" value="&lt;b&gt;...&lt;/b&gt;" style="rounded=0;whiteSpace=wrap;html=1;" vertex="1" parent="-8AQMluYz5d1bTwO63Y4-183">
                    <mxGeometry y="160" width="230" height="40" as="geometry"/>
                </mxCell>
                <mxCell id="111" value="NasStorage" style="rounded=0;whiteSpace=wrap;html=1;" parent="-8AQMluYz5d1bTwO63Y4-183" vertex="1">
                    <mxGeometry width="230" height="40" as="geometry"/>
                </mxCell>
                <mxCell id="112" value="PCacheStorage" style="rounded=0;whiteSpace=wrap;html=1;" parent="-8AQMluYz5d1bTwO63Y4-183" vertex="1">
                    <mxGeometry y="40" width="230" height="40" as="geometry"/>
                </mxCell>
                <mxCell id="113" value="OssStorage" style="rounded=0;whiteSpace=wrap;html=1;" parent="-8AQMluYz5d1bTwO63Y4-183" vertex="1">
                    <mxGeometry y="80" width="230" height="40" as="geometry"/>
                </mxCell>
                <mxCell id="114" value="DfsStorage" style="rounded=0;whiteSpace=wrap;html=1;" parent="-8AQMluYz5d1bTwO63Y4-183" vertex="1">
                    <mxGeometry y="120" width="230" height="40" as="geometry"/>
                </mxCell>
                <mxCell id="117" value="" style="rounded=1;html=1;exitX=1;exitY=0.5;exitDx=0;exitDy=0;entryX=0;entryY=0.5;entryDx=0;entryDy=0;edgeStyle=orthogonalEdgeStyle;" parent="2" source="-8AQMluYz5d1bTwO63Y4-117" target="115" edge="1">
                    <mxGeometry relative="1" as="geometry">
                        <mxPoint x="580" y="320" as="sourcePoint"/>
                        <mxPoint x="870" y="290" as="targetPoint"/>
                    </mxGeometry>
                </mxCell>
                <mxCell id="66" value="MsDataset.load()" style="swimlane;childLayout=stackLayout;resizeParent=1;resizeParentMax=0;startSize=20;html=1;" parent="1" vertex="1">
                    <mxGeometry x="200" y="1080" width="2220" height="480" as="geometry">
                        <mxRectangle x="200" y="1080" width="70" height="30" as="alternateBounds"/>
                    </mxGeometry>
                </mxCell>
                <mxCell id="67" value="modelscope/msdatasets/ms_dataset.py" style="swimlane;startSize=20;html=1;" parent="66" vertex="1">
                    <mxGeometry y="20" width="320" height="460" as="geometry"/>
                </mxCell>
                <mxCell id="68" value="MsDataset.load()" style="rounded=0;whiteSpace=wrap;html=1;" parent="67" vertex="1">
                    <mxGeometry x="20" y="40" width="280" height="40" as="geometry"/>
                </mxCell>
                <mxCell id="69" value="dataset_inst = MsDataset.to_ms_dataset(dataset_inst)" style="rounded=0;whiteSpace=wrap;html=1;" parent="67" vertex="1">
                    <mxGeometry x="20" y="200" width="280" height="40" as="geometry"/>
                </mxCell>
                <mxCell id="70" value="modelscope/msdatasets/data_loader/data_loader_manager.py" style="swimlane;startSize=20;html=1;" parent="66" vertex="1">
                    <mxGeometry x="320" y="20" width="380" height="460" as="geometry"/>
                </mxCell>
                <mxCell id="71" value="RemoteDataLoaderManager().load_dataset()" style="rounded=0;whiteSpace=wrap;html=1;" parent="70" vertex="1">
                    <mxGeometry x="20" y="40" width="340" height="40" as="geometry"/>
                </mxCell>
                <mxCell id="72" value="modelscope/msdatasets/data_loader/data_loader.py" style="swimlane;startSize=20;html=1;" parent="66" vertex="1">
                    <mxGeometry x="700" y="20" width="380" height="460" as="geometry"/>
                </mxCell>
                <mxCell id="73" value="" style="edgeStyle=elbowEdgeStyle;rounded=0;orthogonalLoop=1;jettySize=auto;html=1;" parent="72" source="74" target="76" edge="1">
                    <mxGeometry relative="1" as="geometry"/>
                </mxCell>
                <mxCell id="74" value="OssDownloader::process()" style="rounded=0;whiteSpace=wrap;html=1;" parent="72" vertex="1">
                    <mxGeometry x="20" y="40" width="340" height="40" as="geometry"/>
                </mxCell>
                <mxCell id="75" value="" style="edgeStyle=elbowEdgeStyle;rounded=0;orthogonalLoop=1;jettySize=auto;html=1;" parent="72" source="76" target="78" edge="1">
                    <mxGeometry relative="1" as="geometry"/>
                </mxCell>
                <mxCell id="76" value="OssDownloader::_authorize()" style="rounded=0;whiteSpace=wrap;html=1;" parent="72" vertex="1">
                    <mxGeometry x="20" y="120" width="340" height="40" as="geometry"/>
                </mxCell>
                <mxCell id="77" value="" style="edgeStyle=elbowEdgeStyle;rounded=0;orthogonalLoop=1;jettySize=auto;html=1;" parent="72" source="78" target="80" edge="1">
                    <mxGeometry relative="1" as="geometry"/>
                </mxCell>
                <mxCell id="78" value="OssDownloader::_build()" style="rounded=0;whiteSpace=wrap;html=1;" parent="72" vertex="1">
                    <mxGeometry x="20" y="200" width="340" height="40" as="geometry"/>
                </mxCell>
                <mxCell id="79" value="" style="edgeStyle=elbowEdgeStyle;rounded=0;orthogonalLoop=1;jettySize=auto;html=1;" parent="72" source="80" target="81" edge="1">
                    <mxGeometry relative="1" as="geometry"/>
                </mxCell>
                <mxCell id="80" value="OssDownloader::_prepare_and_download()" style="rounded=0;whiteSpace=wrap;html=1;" parent="72" vertex="1">
                    <mxGeometry x="20" y="280" width="340" height="40" as="geometry"/>
                </mxCell>
                <mxCell id="81" value="OssDownloader::_post_process()" style="rounded=0;whiteSpace=wrap;html=1;" parent="72" vertex="1">
                    <mxGeometry x="20" y="360" width="340" height="40" as="geometry"/>
                </mxCell>
                <mxCell id="82" value="" style="rounded=0;orthogonalLoop=1;jettySize=auto;html=1;exitX=0;exitY=0.5;exitDx=0;exitDy=0;dashed=1;entryX=0.25;entryY=1;entryDx=0;entryDy=0;edgeStyle=orthogonalEdgeStyle;" parent="72" source="81" target="74" edge="1">
                    <mxGeometry relative="1" as="geometry">
                        <mxPoint x="200" y="330" as="sourcePoint"/>
                        <mxPoint x="30" y="90" as="targetPoint"/>
                        <Array as="points">
                            <mxPoint x="10" y="380"/>
                            <mxPoint x="10" y="100"/>
                            <mxPoint x="105" y="100"/>
                        </Array>
                    </mxGeometry>
                </mxCell>
                <mxCell id="83" value="modelscope/msdatasets/meta/data_meta_manager.py" style="swimlane;startSize=20;html=1;" parent="66" vertex="1">
                    <mxGeometry x="1080" y="20" width="380" height="460" as="geometry"/>
                </mxCell>
                <mxCell id="84" value="" style="edgeStyle=elbowEdgeStyle;rounded=0;orthogonalLoop=1;jettySize=auto;html=1;" parent="83" source="85" target="86" edge="1">
                    <mxGeometry relative="1" as="geometry"/>
                </mxCell>
                <mxCell id="85" value="DataMetaManager::fetch_meta_files()" style="rounded=0;whiteSpace=wrap;html=1;" parent="83" vertex="1">
                    <mxGeometry x="20" y="120" width="340" height="40" as="geometry"/>
                </mxCell>
                <mxCell id="86" value="DataMetaManager::parse_dataset_structure()" style="rounded=0;whiteSpace=wrap;html=1;" parent="83" vertex="1">
                    <mxGeometry x="20" y="200" width="340" height="40" as="geometry"/>
                </mxCell>
                <mxCell id="87" value="modelscope/msdatasets/data_files/data_files_manager.py" style="swimlane;startSize=20;html=1;" parent="66" vertex="1">
                    <mxGeometry x="1460" y="20" width="380" height="460" as="geometry"/>
                </mxCell>
                <mxCell id="88" value="DataFilesManager::get_data_files_builder()" style="rounded=0;whiteSpace=wrap;html=1;" parent="87" vertex="1">
                    <mxGeometry x="20" y="200" width="340" height="40" as="geometry"/>
                </mxCell>
                <mxCell id="89" value="DataFilesManager::fetch_data_files()" style="rounded=0;whiteSpace=wrap;html=1;" parent="87" vertex="1">
                    <mxGeometry x="20" y="280" width="340" height="40" as="geometry"/>
                </mxCell>
                <mxCell id="90" value="DataSetBuilder" style="swimlane;startSize=20;html=1;" parent="66" vertex="1">
                    <mxGeometry x="1840" y="20" width="380" height="460" as="geometry"/>
                </mxCell>
                <mxCell id="91" value="" style="edgeStyle=elbowEdgeStyle;rounded=0;orthogonalLoop=1;jettySize=auto;html=1;" parent="90" source="92" target="93" edge="1">
                    <mxGeometry relative="1" as="geometry"/>
                </mxCell>
                <mxCell id="92" value="builder.download_and_prepare()" style="rounded=0;whiteSpace=wrap;html=1;" parent="90" vertex="1">
                    <mxGeometry x="20" y="280" width="340" height="40" as="geometry"/>
                </mxCell>
                <mxCell id="93" value="builder.as_dataset()" style="rounded=0;whiteSpace=wrap;html=1;" parent="90" vertex="1">
                    <mxGeometry x="20" y="360" width="340" height="40" as="geometry"/>
                </mxCell>
                <mxCell id="94" value="" style="edgeStyle=orthogonalEdgeStyle;rounded=0;orthogonalLoop=1;jettySize=auto;html=1;exitX=1;exitY=0.5;exitDx=0;exitDy=0;" parent="66" source="68" target="71" edge="1">
                    <mxGeometry relative="1" as="geometry">
                        <mxPoint x="300" y="180" as="sourcePoint"/>
                    </mxGeometry>
                </mxCell>
                <mxCell id="95" value="" style="edgeStyle=orthogonalEdgeStyle;rounded=0;orthogonalLoop=1;jettySize=auto;html=1;entryX=1;entryY=0.5;entryDx=0;entryDy=0;exitX=0.25;exitY=1;exitDx=0;exitDy=0;" parent="66" source="71" target="69" edge="1">
                    <mxGeometry relative="1" as="geometry"/>
                </mxCell>
                <mxCell id="96" value="dataset_inst" style="edgeLabel;html=1;align=center;verticalAlign=middle;resizable=0;points=[];" parent="95" vertex="1" connectable="0">
                    <mxGeometry x="-0.3865" relative="1" as="geometry">
                        <mxPoint as="offset"/>
                    </mxGeometry>
                </mxCell>
                <mxCell id="97" value="" style="edgeStyle=elbowEdgeStyle;rounded=0;orthogonalLoop=1;jettySize=auto;html=1;exitX=1;exitY=0.25;exitDx=0;exitDy=0;entryX=0;entryY=0.25;entryDx=0;entryDy=0;" parent="66" source="71" target="74" edge="1">
                    <mxGeometry relative="1" as="geometry"/>
                </mxCell>
                <mxCell id="98" value="" style="edgeStyle=elbowEdgeStyle;rounded=0;orthogonalLoop=1;jettySize=auto;html=1;exitX=0;exitY=0.75;exitDx=0;exitDy=0;entryX=1;entryY=0.75;entryDx=0;entryDy=0;dashed=1;" parent="66" source="74" target="71" edge="1">
                    <mxGeometry relative="1" as="geometry">
                        <mxPoint x="900" y="110" as="sourcePoint"/>
                        <mxPoint x="900" y="150" as="targetPoint"/>
                    </mxGeometry>
                </mxCell>
                <mxCell id="99" value="" style="edgeStyle=elbowEdgeStyle;rounded=0;orthogonalLoop=1;jettySize=auto;html=1;" parent="66" source="78" target="85" edge="1">
                    <mxGeometry relative="1" as="geometry">
                        <Array as="points">
                            <mxPoint x="1070" y="200"/>
                        </Array>
                    </mxGeometry>
                </mxCell>
                <mxCell id="100" value="" style="edgeStyle=elbowEdgeStyle;rounded=0;orthogonalLoop=1;jettySize=auto;html=1;" parent="66" source="86" target="88" edge="1">
                    <mxGeometry relative="1" as="geometry"/>
                </mxCell>
                <mxCell id="101" value="" style="rounded=0;orthogonalLoop=1;jettySize=auto;html=1;entryX=0.75;entryY=1;entryDx=0;entryDy=0;exitX=0.5;exitY=1;exitDx=0;exitDy=0;dashed=1;edgeStyle=orthogonalEdgeStyle;" parent="66" source="88" target="78" edge="1">
                    <mxGeometry relative="1" as="geometry">
                        <mxPoint x="1650" y="420" as="targetPoint"/>
                    </mxGeometry>
                </mxCell>
                <mxCell id="102" value="CsvDatasetBuilder/TaskSpecificDatasetBuilder" style="edgeLabel;html=1;align=center;verticalAlign=middle;resizable=0;points=[];" parent="101" vertex="1" connectable="0">
                    <mxGeometry x="-0.0256" relative="1" as="geometry">
                        <mxPoint as="offset"/>
                    </mxGeometry>
                </mxCell>
                <mxCell id="103" value="" style="edgeStyle=elbowEdgeStyle;rounded=0;orthogonalLoop=1;jettySize=auto;html=1;exitX=1;exitY=0.25;exitDx=0;exitDy=0;entryX=0;entryY=0.25;entryDx=0;entryDy=0;" parent="66" source="80" target="89" edge="1">
                    <mxGeometry relative="1" as="geometry">
                        <mxPoint x="1450" y="250" as="sourcePoint"/>
                        <mxPoint x="1490" y="250" as="targetPoint"/>
                    </mxGeometry>
                </mxCell>
                <mxCell id="104" value="DatasetBuilder" style="edgeLabel;html=1;align=center;verticalAlign=middle;resizable=0;points=[];" parent="103" vertex="1" connectable="0">
                    <mxGeometry x="-0.127" y="-1" relative="1" as="geometry">
                        <mxPoint x="8" y="-2" as="offset"/>
                    </mxGeometry>
                </mxCell>
                <mxCell id="105" value="" style="edgeStyle=elbowEdgeStyle;rounded=0;orthogonalLoop=1;jettySize=auto;html=1;entryX=1;entryY=0.75;entryDx=0;entryDy=0;exitX=0;exitY=0.75;exitDx=0;exitDy=0;dashed=1;" parent="66" source="89" target="80" edge="1">
                    <mxGeometry relative="1" as="geometry">
                        <mxPoint x="1650" y="420" as="targetPoint"/>
                    </mxGeometry>
                </mxCell>
                <mxCell id="106" value="Dataset" style="edgeLabel;html=1;align=center;verticalAlign=middle;resizable=0;points=[];" parent="105" vertex="1" connectable="0">
                    <mxGeometry x="0.1667" relative="1" as="geometry">
                        <mxPoint x="15" as="offset"/>
                    </mxGeometry>
                </mxCell>
                <mxCell id="107" value="" style="edgeStyle=elbowEdgeStyle;rounded=0;orthogonalLoop=1;jettySize=auto;html=1;" parent="66" source="89" target="92" edge="1">
                    <mxGeometry relative="1" as="geometry"/>
                </mxCell>
                <mxCell id="108" value="" style="rounded=0;orthogonalLoop=1;jettySize=auto;html=1;entryX=0.5;entryY=1;entryDx=0;entryDy=0;edgeStyle=orthogonalEdgeStyle;" parent="66" source="93" target="89" edge="1">
                    <mxGeometry relative="1" as="geometry">
                        <mxPoint x="1780" y="400" as="targetPoint"/>
                    </mxGeometry>
                </mxCell>
                <mxCell id="109" value="Dataset" style="edgeLabel;html=1;align=center;verticalAlign=middle;resizable=0;points=[];" parent="108" vertex="1" connectable="0">
                    <mxGeometry x="0.2593" y="3" relative="1" as="geometry">
                        <mxPoint x="51" y="-3" as="offset"/>
                    </mxGeometry>
                </mxCell>
                <mxCell id="-8AQMluYz5d1bTwO63Y4-140" value="" style="rounded=0;whiteSpace=wrap;html=1;" vertex="1" parent="1">
                    <mxGeometry x="220" y="1720" width="660" height="120" as="geometry"/>
                </mxCell>
                <mxCell id="-8AQMluYz5d1bTwO63Y4-141" value="LocalDataLoaderManager" style="rounded=0;whiteSpace=wrap;html=1;" vertex="1" parent="1">
                    <mxGeometry x="230" y="1760" width="310" height="70" as="geometry"/>
                </mxCell>
                <mxCell id="-8AQMluYz5d1bTwO63Y4-142" value="&lt;meta charset=&quot;utf-8&quot;&gt;&lt;span style=&quot;color: rgb(0, 0, 0); font-family: Helvetica; font-size: 12px; font-style: normal; font-variant-ligatures: normal; font-variant-caps: normal; font-weight: 400; letter-spacing: normal; orphans: 2; text-align: center; text-indent: 0px; text-transform: none; widows: 2; word-spacing: 0px; -webkit-text-stroke-width: 0px; background-color: rgb(255, 255, 255); text-decoration-thickness: initial; text-decoration-style: initial; text-decoration-color: initial; float: none; display: inline !important;&quot;&gt;DataLoaderManager&lt;/span&gt;" style="text;whiteSpace=wrap;html=1;" vertex="1" parent="1">
                    <mxGeometry x="220" y="1720" width="140" height="40" as="geometry"/>
                </mxCell>
                <mxCell id="-8AQMluYz5d1bTwO63Y4-143" value="RemoteDataLoaderManager" style="rounded=0;whiteSpace=wrap;html=1;" vertex="1" parent="1">
                    <mxGeometry x="560" y="1760" width="310" height="70" as="geometry"/>
                </mxCell>
                <mxCell id="-8AQMluYz5d1bTwO63Y4-144" value="" style="rounded=0;whiteSpace=wrap;html=1;" vertex="1" parent="1">
                    <mxGeometry x="220" y="2060" width="130" height="240" as="geometry"/>
                </mxCell>
                <mxCell id="-8AQMluYz5d1bTwO63Y4-145" value="" style="rounded=0;whiteSpace=wrap;html=1;" vertex="1" parent="1">
                    <mxGeometry x="360" y="1870" width="520" height="160" as="geometry"/>
                </mxCell>
                <mxCell id="-8AQMluYz5d1bTwO63Y4-146" value="" style="rounded=0;whiteSpace=wrap;html=1;" vertex="1" parent="1">
                    <mxGeometry x="360" y="2060" width="521" height="240" as="geometry"/>
                </mxCell>
                <mxCell id="-8AQMluYz5d1bTwO63Y4-147" value="&lt;meta charset=&quot;utf-8&quot;&gt;&lt;span style=&quot;color: rgb(0, 0, 0); font-family: Helvetica; font-size: 12px; font-style: normal; font-variant-ligatures: normal; font-variant-caps: normal; font-weight: 400; letter-spacing: normal; orphans: 2; text-align: center; text-indent: 0px; text-transform: none; widows: 2; word-spacing: 0px; -webkit-text-stroke-width: 0px; background-color: rgb(255, 255, 255); text-decoration-thickness: initial; text-decoration-style: initial; text-decoration-color: initial; float: none; display: inline !important;&quot;&gt;DatasetBuilder&lt;/span&gt;" style="text;whiteSpace=wrap;html=1;" vertex="1" parent="1">
                    <mxGeometry x="360" y="1870" width="110" height="40" as="geometry"/>
                </mxCell>
                <mxCell id="-8AQMluYz5d1bTwO63Y4-148" value="&lt;meta charset=&quot;utf-8&quot;&gt;&lt;span style=&quot;color: rgb(0, 0, 0); font-family: Helvetica; font-size: 12px; font-style: normal; font-variant-ligatures: normal; font-variant-caps: normal; font-weight: 400; letter-spacing: normal; orphans: 2; text-align: center; text-indent: 0px; text-transform: none; widows: 2; word-spacing: 0px; -webkit-text-stroke-width: 0px; background-color: rgb(255, 255, 255); text-decoration-thickness: initial; text-decoration-style: initial; text-decoration-color: initial; float: none; display: inline !important;&quot;&gt;DownloadManager&lt;/span&gt;" style="text;whiteSpace=wrap;html=1;" vertex="1" parent="1">
                    <mxGeometry x="360" y="2060" width="130" height="40" as="geometry"/>
                </mxCell>
                <mxCell id="-8AQMluYz5d1bTwO63Y4-149" value="CsvDatasetBuilder" style="rounded=0;whiteSpace=wrap;html=1;" vertex="1" parent="1">
                    <mxGeometry x="370" y="1900" width="160" height="50" as="geometry"/>
                </mxCell>
                <mxCell id="-8AQMluYz5d1bTwO63Y4-150" value="JsonDatasetBuilder" style="rounded=0;whiteSpace=wrap;html=1;" vertex="1" parent="1">
                    <mxGeometry x="540" y="1900" width="160" height="50" as="geometry"/>
                </mxCell>
                <mxCell id="-8AQMluYz5d1bTwO63Y4-151" value="ChunkDatasetBuilder" style="rounded=0;whiteSpace=wrap;html=1;" vertex="1" parent="1">
                    <mxGeometry x="710" y="1900" width="160" height="50" as="geometry"/>
                </mxCell>
                <mxCell id="-8AQMluYz5d1bTwO63Y4-152" value="ArrowDatasetBuilder" style="rounded=0;whiteSpace=wrap;html=1;" vertex="1" parent="1">
                    <mxGeometry x="370" y="1963" width="160" height="50" as="geometry"/>
                </mxCell>
                <mxCell id="-8AQMluYz5d1bTwO63Y4-154" value="&lt;font style=&quot;font-size: 18px;&quot;&gt;...&lt;/font&gt;" style="text;html=1;align=center;verticalAlign=middle;resizable=0;points=[];autosize=1;strokeColor=none;fillColor=none;fontStyle=1" vertex="1" parent="1">
                    <mxGeometry x="640" y="1963" width="40" height="40" as="geometry"/>
                </mxCell>
                <mxCell id="-8AQMluYz5d1bTwO63Y4-155" value="DownloadManager" style="rounded=0;whiteSpace=wrap;html=1;" vertex="1" parent="1">
                    <mxGeometry x="371" y="2090" width="239" height="50" as="geometry"/>
                </mxCell>
                <mxCell id="-8AQMluYz5d1bTwO63Y4-157" value="StreamingDownloadManager" style="rounded=0;whiteSpace=wrap;html=1;" vertex="1" parent="1">
                    <mxGeometry x="630" y="2090" width="240" height="50" as="geometry"/>
                </mxCell>
                <mxCell id="-8AQMluYz5d1bTwO63Y4-158" value="" style="rounded=0;whiteSpace=wrap;html=1;" vertex="1" parent="1">
                    <mxGeometry x="371" y="2150" width="499" height="140" as="geometry"/>
                </mxCell>
                <mxCell id="-8AQMluYz5d1bTwO63Y4-159" value="&lt;meta charset=&quot;utf-8&quot;&gt;&lt;span style=&quot;color: rgb(0, 0, 0); font-family: Helvetica; font-size: 12px; font-style: normal; font-variant-ligatures: normal; font-variant-caps: normal; font-weight: 400; letter-spacing: normal; orphans: 2; text-align: center; text-indent: 0px; text-transform: none; widows: 2; word-spacing: 0px; -webkit-text-stroke-width: 0px; background-color: rgb(255, 255, 255); text-decoration-thickness: initial; text-decoration-style: initial; text-decoration-color: initial; float: none; display: inline !important;&quot;&gt;Backend&lt;/span&gt;" style="text;whiteSpace=wrap;html=1;fontSize=18;" vertex="1" parent="1">
                    <mxGeometry x="371" y="2140" width="80" height="50" as="geometry"/>
                </mxCell>
                <mxCell id="-8AQMluYz5d1bTwO63Y4-160" value="DfsStorage" style="rounded=0;whiteSpace=wrap;html=1;" vertex="1" parent="1">
                    <mxGeometry x="381" y="2175" width="150" height="50" as="geometry"/>
                </mxCell>
                <mxCell id="-8AQMluYz5d1bTwO63Y4-161" value="NasStorage" style="rounded=0;whiteSpace=wrap;html=1;" vertex="1" parent="1">
                    <mxGeometry x="545" y="2175" width="150" height="50" as="geometry"/>
                </mxCell>
                <mxCell id="-8AQMluYz5d1bTwO63Y4-162" value="OssStorage" style="rounded=0;whiteSpace=wrap;html=1;" vertex="1" parent="1">
                    <mxGeometry x="710" y="2175" width="150" height="50" as="geometry"/>
                </mxCell>
                <mxCell id="-8AQMluYz5d1bTwO63Y4-163" value="PcacheStorage" style="rounded=0;whiteSpace=wrap;html=1;" vertex="1" parent="1">
                    <mxGeometry x="381" y="2232.5" width="150" height="50" as="geometry"/>
                </mxCell>
                <mxCell id="-8AQMluYz5d1bTwO63Y4-164" value="&lt;font style=&quot;font-size: 18px;&quot;&gt;...&lt;/font&gt;" style="text;html=1;align=center;verticalAlign=middle;resizable=0;points=[];autosize=1;strokeColor=none;fillColor=none;fontStyle=1" vertex="1" parent="1">
                    <mxGeometry x="640" y="2232.5" width="40" height="40" as="geometry"/>
                </mxCell>
                <mxCell id="-8AQMluYz5d1bTwO63Y4-166" value="MetaConfig" style="rounded=0;whiteSpace=wrap;html=1;" vertex="1" parent="1">
                    <mxGeometry x="230" y="2160" width="110" height="50" as="geometry"/>
                </mxCell>
                <mxCell id="-8AQMluYz5d1bTwO63Y4-167" value="DownloadConfig" style="rounded=0;whiteSpace=wrap;html=1;" vertex="1" parent="1">
                    <mxGeometry x="230" y="2090" width="110" height="50" as="geometry"/>
                </mxCell>
                <mxCell id="-8AQMluYz5d1bTwO63Y4-168" value="MetaManager" style="rounded=0;whiteSpace=wrap;html=1;" vertex="1" parent="1">
                    <mxGeometry x="230" y="2232.5" width="110" height="50" as="geometry"/>
                </mxCell>
                <mxCell id="-8AQMluYz5d1bTwO63Y4-169" value="" style="rounded=0;whiteSpace=wrap;html=1;" vertex="1" parent="1">
                    <mxGeometry x="220" y="1870" width="130" height="160" as="geometry"/>
                </mxCell>
                <mxCell id="-8AQMluYz5d1bTwO63Y4-172" value="&lt;span style=&quot;color: rgb(0, 0, 0); font-family: Helvetica; font-size: 12px; font-style: normal; font-variant-ligatures: normal; font-variant-caps: normal; font-weight: 400; letter-spacing: normal; orphans: 2; text-align: center; text-indent: 0px; text-transform: none; widows: 2; word-spacing: 0px; -webkit-text-stroke-width: 0px; background-color: rgb(255, 255, 255); text-decoration-thickness: initial; text-decoration-style: initial; text-decoration-color: initial; float: none; display: inline !important;&quot;&gt;Dataset&lt;/span&gt;" style="text;whiteSpace=wrap;html=1;" vertex="1" parent="1">
                    <mxGeometry x="220" y="1870" width="140" height="40" as="geometry"/>
                </mxCell>
                <mxCell id="-8AQMluYz5d1bTwO63Y4-173" value="&lt;span style=&quot;color: rgb(0, 0, 0); font-family: Helvetica; font-size: 12px; font-style: normal; font-variant-ligatures: normal; font-variant-caps: normal; font-weight: 400; letter-spacing: normal; orphans: 2; text-align: center; text-indent: 0px; text-transform: none; widows: 2; word-spacing: 0px; -webkit-text-stroke-width: 0px; background-color: rgb(255, 255, 255); text-decoration-thickness: initial; text-decoration-style: initial; text-decoration-color: initial; float: none; display: inline !important;&quot;&gt;DatasetContext&lt;/span&gt;" style="text;whiteSpace=wrap;html=1;" vertex="1" parent="1">
                    <mxGeometry x="220" y="2060" width="130" height="40" as="geometry"/>
                </mxCell>
                <mxCell id="-8AQMluYz5d1bTwO63Y4-174" value="MapDataset" style="rounded=0;whiteSpace=wrap;html=1;" vertex="1" parent="1">
                    <mxGeometry x="230" y="1900" width="110" height="50" as="geometry"/>
                </mxCell>
                <mxCell id="-8AQMluYz5d1bTwO63Y4-176" value="IterableDataset" style="rounded=0;whiteSpace=wrap;html=1;" vertex="1" parent="1">
                    <mxGeometry x="230" y="1963" width="110" height="50" as="geometry"/>
                </mxCell>
            </root>
        </mxGraphModel>
    </diagram>
    <diagram id="xxBHixrSVzfQ8nVxKuQ3" name="class diagram">
        <mxGraphModel dx="2154" dy="874" grid="1" gridSize="10" guides="1" tooltips="1" connect="1" arrows="1" fold="1" page="0" pageScale="1" pageWidth="850" pageHeight="1100" math="0" shadow="0">
            <root>
                <mxCell id="0"/>
                <mxCell id="1" parent="0"/>
                <mxCell id="4aSmwWHDCuVfqe-Nd0Yk-1" value="" style="rounded=0;whiteSpace=wrap;html=1;dashed=1;fontFamily=Helvetica;fontSize=12;" parent="1" vertex="1">
                    <mxGeometry x="390" y="550" width="220" height="430" as="geometry"/>
                </mxCell>
                <mxCell id="Eb2V1ECVx0wj9dN1RO27-1" value="" style="rounded=0;orthogonalLoop=1;jettySize=auto;html=1;entryX=0.5;entryY=1;entryDx=0;entryDy=0;endArrow=block;endFill=0;endSize=15;startSize=15;exitX=0.5;exitY=0;exitDx=0;exitDy=0;edgeStyle=orthogonalEdgeStyle;" parent="1" source="Eb2V1ECVx0wj9dN1RO27-3" target="Eb2V1ECVx0wj9dN1RO27-8" edge="1">
                    <mxGeometry relative="1" as="geometry">
                        <mxPoint x="230" y="300" as="targetPoint"/>
                    </mxGeometry>
                </mxCell>
                <mxCell id="Eb2V1ECVx0wj9dN1RO27-2" value="" style="rounded=0;orthogonalLoop=1;jettySize=auto;html=1;entryX=0.5;entryY=0;entryDx=0;entryDy=0;endArrow=none;endFill=0;" parent="1" source="Eb2V1ECVx0wj9dN1RO27-3" target="Eb2V1ECVx0wj9dN1RO27-24" edge="1">
                    <mxGeometry relative="1" as="geometry">
                        <mxPoint x="510" y="540" as="targetPoint"/>
                    </mxGeometry>
                </mxCell>
                <mxCell id="Eb2V1ECVx0wj9dN1RO27-3" value="RemoteDataLoaderManager" style="swimlane;fontStyle=0;align=center;verticalAlign=top;childLayout=stackLayout;horizontal=1;startSize=26;horizontalStack=0;resizeParent=1;resizeLast=0;collapsible=1;marginBottom=0;rounded=0;shadow=0;strokeWidth=1;" parent="1" vertex="1">
                    <mxGeometry x="120" y="360" width="200" height="120" as="geometry">
                        <mxRectangle x="130" y="380" width="160" height="26" as="alternateBounds"/>
                    </mxGeometry>
                </mxCell>
                <mxCell id="Eb2V1ECVx0wj9dN1RO27-4" value="dataset_context_config" style="text;align=left;verticalAlign=top;spacingLeft=4;spacingRight=4;overflow=hidden;rotatable=0;points=[[0,0.5],[1,0.5]];portConstraint=eastwest;" parent="Eb2V1ECVx0wj9dN1RO27-3" vertex="1">
                    <mxGeometry y="26" width="200" height="26" as="geometry"/>
                </mxCell>
                <mxCell id="Eb2V1ECVx0wj9dN1RO27-5" value="api: HubApi" style="text;align=left;verticalAlign=top;spacingLeft=4;spacingRight=4;overflow=hidden;rotatable=0;points=[[0,0.5],[1,0.5]];portConstraint=eastwest;rounded=0;shadow=0;html=0;" parent="Eb2V1ECVx0wj9dN1RO27-3" vertex="1">
                    <mxGeometry y="52" width="200" height="26" as="geometry"/>
                </mxCell>
                <mxCell id="Eb2V1ECVx0wj9dN1RO27-6" value="" style="line;html=1;strokeWidth=1;align=left;verticalAlign=middle;spacingTop=-1;spacingLeft=3;spacingRight=3;rotatable=0;labelPosition=right;points=[];portConstraint=eastwest;" parent="Eb2V1ECVx0wj9dN1RO27-3" vertex="1">
                    <mxGeometry y="78" width="200" height="8" as="geometry"/>
                </mxCell>
                <mxCell id="Eb2V1ECVx0wj9dN1RO27-7" value="load_dataset(data_loader_type)" style="text;align=left;verticalAlign=top;spacingLeft=4;spacingRight=4;overflow=hidden;rotatable=0;points=[[0,0.5],[1,0.5]];portConstraint=eastwest;fontStyle=0" parent="Eb2V1ECVx0wj9dN1RO27-3" vertex="1">
                    <mxGeometry y="86" width="200" height="26" as="geometry"/>
                </mxCell>
                <mxCell id="Eb2V1ECVx0wj9dN1RO27-8" value="DataLoaderManager" style="swimlane;fontStyle=0;align=center;verticalAlign=top;childLayout=stackLayout;horizontal=1;startSize=26;horizontalStack=0;resizeParent=1;resizeLast=0;collapsible=1;marginBottom=0;rounded=0;shadow=0;strokeWidth=1;" parent="1" vertex="1">
                    <mxGeometry x="120" y="180" width="200" height="100" as="geometry">
                        <mxRectangle x="130" y="380" width="160" height="26" as="alternateBounds"/>
                    </mxGeometry>
                </mxCell>
                <mxCell id="Eb2V1ECVx0wj9dN1RO27-9" value="dataset_context_config" style="text;align=left;verticalAlign=top;spacingLeft=4;spacingRight=4;overflow=hidden;rotatable=0;points=[[0,0.5],[1,0.5]];portConstraint=eastwest;" parent="Eb2V1ECVx0wj9dN1RO27-8" vertex="1">
                    <mxGeometry y="26" width="200" height="26" as="geometry"/>
                </mxCell>
                <mxCell id="Eb2V1ECVx0wj9dN1RO27-10" value="" style="line;html=1;strokeWidth=1;align=left;verticalAlign=middle;spacingTop=-1;spacingLeft=3;spacingRight=3;rotatable=0;labelPosition=right;points=[];portConstraint=eastwest;" parent="Eb2V1ECVx0wj9dN1RO27-8" vertex="1">
                    <mxGeometry y="52" width="200" height="8" as="geometry"/>
                </mxCell>
                <mxCell id="Eb2V1ECVx0wj9dN1RO27-11" value="load_dataset(data_loader_type)" style="text;align=left;verticalAlign=top;spacingLeft=4;spacingRight=4;overflow=hidden;rotatable=0;points=[[0,0.5],[1,0.5]];portConstraint=eastwest;fontStyle=0" parent="Eb2V1ECVx0wj9dN1RO27-8" vertex="1">
                    <mxGeometry y="60" width="200" height="26" as="geometry"/>
                </mxCell>
                <mxCell id="Eb2V1ECVx0wj9dN1RO27-12" value="LocalDataLoaderManager" style="swimlane;fontStyle=0;align=center;verticalAlign=top;childLayout=stackLayout;horizontal=1;startSize=26;horizontalStack=0;resizeParent=1;resizeLast=0;collapsible=1;marginBottom=0;rounded=0;shadow=0;strokeWidth=1;" parent="1" vertex="1">
                    <mxGeometry x="-120" y="360" width="200" height="100" as="geometry">
                        <mxRectangle x="130" y="380" width="160" height="26" as="alternateBounds"/>
                    </mxGeometry>
                </mxCell>
                <mxCell id="Eb2V1ECVx0wj9dN1RO27-13" value="dataset_context_config" style="text;align=left;verticalAlign=top;spacingLeft=4;spacingRight=4;overflow=hidden;rotatable=0;points=[[0,0.5],[1,0.5]];portConstraint=eastwest;" parent="Eb2V1ECVx0wj9dN1RO27-12" vertex="1">
                    <mxGeometry y="26" width="200" height="26" as="geometry"/>
                </mxCell>
                <mxCell id="Eb2V1ECVx0wj9dN1RO27-14" value="" style="line;html=1;strokeWidth=1;align=left;verticalAlign=middle;spacingTop=-1;spacingLeft=3;spacingRight=3;rotatable=0;labelPosition=right;points=[];portConstraint=eastwest;" parent="Eb2V1ECVx0wj9dN1RO27-12" vertex="1">
                    <mxGeometry y="52" width="200" height="8" as="geometry"/>
                </mxCell>
                <mxCell id="Eb2V1ECVx0wj9dN1RO27-15" value="load_dataset(data_loader_type)" style="text;align=left;verticalAlign=top;spacingLeft=4;spacingRight=4;overflow=hidden;rotatable=0;points=[[0,0.5],[1,0.5]];portConstraint=eastwest;fontStyle=0" parent="Eb2V1ECVx0wj9dN1RO27-12" vertex="1">
                    <mxGeometry y="60" width="200" height="26" as="geometry"/>
                </mxCell>
                <mxCell id="Eb2V1ECVx0wj9dN1RO27-16" value="" style="rounded=0;orthogonalLoop=1;jettySize=auto;html=1;endArrow=block;endFill=0;endSize=15;startSize=15;exitX=0.5;exitY=0;exitDx=0;exitDy=0;entryX=0.5;entryY=1;entryDx=0;entryDy=0;edgeStyle=orthogonalEdgeStyle;" parent="1" source="Eb2V1ECVx0wj9dN1RO27-12" target="Eb2V1ECVx0wj9dN1RO27-8" edge="1">
                    <mxGeometry relative="1" as="geometry">
                        <mxPoint x="230" y="370" as="sourcePoint"/>
                        <mxPoint x="210" y="280" as="targetPoint"/>
                    </mxGeometry>
                </mxCell>
                <mxCell id="Eb2V1ECVx0wj9dN1RO27-17" value="DatasetContext" style="swimlane;fontStyle=0;align=center;verticalAlign=top;childLayout=stackLayout;horizontal=1;startSize=26;horizontalStack=0;resizeParent=1;resizeLast=0;collapsible=1;marginBottom=0;rounded=0;shadow=0;strokeWidth=1;" parent="1" vertex="1">
                    <mxGeometry x="400" y="280" width="200" height="140" as="geometry">
                        <mxRectangle x="130" y="380" width="160" height="26" as="alternateBounds"/>
                    </mxGeometry>
                </mxCell>
                <mxCell id="Eb2V1ECVx0wj9dN1RO27-18" value="_download_config" style="text;align=left;verticalAlign=top;spacingLeft=4;spacingRight=4;overflow=hidden;rotatable=0;points=[[0,0.5],[1,0.5]];portConstraint=eastwest;" parent="Eb2V1ECVx0wj9dN1RO27-17" vertex="1">
                    <mxGeometry y="26" width="200" height="26" as="geometry"/>
                </mxCell>
                <mxCell id="Eb2V1ECVx0wj9dN1RO27-19" value="_data_meta_config" style="text;align=left;verticalAlign=top;spacingLeft=4;spacingRight=4;overflow=hidden;rotatable=0;points=[[0,0.5],[1,0.5]];portConstraint=eastwest;rounded=0;shadow=0;html=0;" parent="Eb2V1ECVx0wj9dN1RO27-17" vertex="1">
                    <mxGeometry y="52" width="200" height="26" as="geometry"/>
                </mxCell>
                <mxCell id="Eb2V1ECVx0wj9dN1RO27-20" value="_auth_config" style="text;align=left;verticalAlign=top;spacingLeft=4;spacingRight=4;overflow=hidden;rotatable=0;points=[[0,0.5],[1,0.5]];portConstraint=eastwest;rounded=0;shadow=0;html=0;" parent="Eb2V1ECVx0wj9dN1RO27-17" vertex="1">
                    <mxGeometry y="78" width="200" height="26" as="geometry"/>
                </mxCell>
                <mxCell id="Eb2V1ECVx0wj9dN1RO27-21" value="_config_kwargs" style="text;align=left;verticalAlign=top;spacingLeft=4;spacingRight=4;overflow=hidden;rotatable=0;points=[[0,0.5],[1,0.5]];portConstraint=eastwest;rounded=0;shadow=0;html=0;" parent="Eb2V1ECVx0wj9dN1RO27-17" vertex="1">
                    <mxGeometry y="104" width="200" height="26" as="geometry"/>
                </mxCell>
                <mxCell id="Eb2V1ECVx0wj9dN1RO27-22" value="" style="line;html=1;strokeWidth=1;align=left;verticalAlign=middle;spacingTop=-1;spacingLeft=3;spacingRight=3;rotatable=0;labelPosition=right;points=[];portConstraint=eastwest;" parent="Eb2V1ECVx0wj9dN1RO27-17" vertex="1">
                    <mxGeometry y="130" width="200" height="8" as="geometry"/>
                </mxCell>
                <mxCell id="Eb2V1ECVx0wj9dN1RO27-23" value="" style="rounded=0;orthogonalLoop=1;jettySize=auto;html=1;entryX=1;entryY=0.5;entryDx=0;entryDy=0;endArrow=diamondThin;endFill=1;endSize=20;startSize=20;exitX=0;exitY=0.5;exitDx=0;exitDy=0;edgeStyle=orthogonalEdgeStyle;" parent="1" source="Eb2V1ECVx0wj9dN1RO27-19" target="Eb2V1ECVx0wj9dN1RO27-5" edge="1">
                    <mxGeometry relative="1" as="geometry">
                        <mxPoint x="230" y="370" as="sourcePoint"/>
                        <mxPoint x="110" y="290" as="targetPoint"/>
                        <Array as="points">
                            <mxPoint x="360" y="345"/>
                            <mxPoint x="360" y="425"/>
                        </Array>
                    </mxGeometry>
                </mxCell>
                <mxCell id="Eb2V1ECVx0wj9dN1RO27-24" value="Dataloader" style="swimlane;fontStyle=0;align=center;verticalAlign=top;childLayout=stackLayout;horizontal=1;startSize=26;horizontalStack=0;resizeParent=1;resizeLast=0;collapsible=1;marginBottom=0;rounded=0;shadow=0;strokeWidth=1;" parent="1" vertex="1">
                    <mxGeometry x="120" y="560" width="200" height="280" as="geometry">
                        <mxRectangle x="130" y="380" width="160" height="26" as="alternateBounds"/>
                    </mxGeometry>
                </mxCell>
                <mxCell id="Eb2V1ECVx0wj9dN1RO27-25" value="dataset_context_config" style="text;align=left;verticalAlign=top;spacingLeft=4;spacingRight=4;overflow=hidden;rotatable=0;points=[[0,0.5],[1,0.5]];portConstraint=eastwest;" parent="Eb2V1ECVx0wj9dN1RO27-24" vertex="1">
                    <mxGeometry y="26" width="200" height="26" as="geometry"/>
                </mxCell>
                <mxCell id="Eb2V1ECVx0wj9dN1RO27-26" value="data_files_manager" style="text;align=left;verticalAlign=top;spacingLeft=4;spacingRight=4;overflow=hidden;rotatable=0;points=[[0,0.5],[1,0.5]];portConstraint=eastwest;rounded=0;shadow=0;html=0;" parent="Eb2V1ECVx0wj9dN1RO27-24" vertex="1">
                    <mxGeometry y="52" width="200" height="26" as="geometry"/>
                </mxCell>
                <mxCell id="Eb2V1ECVx0wj9dN1RO27-27" value="builder: DatasetBuilder" style="text;align=left;verticalAlign=top;spacingLeft=4;spacingRight=4;overflow=hidden;rotatable=0;points=[[0,0.5],[1,0.5]];portConstraint=eastwest;rounded=0;shadow=0;html=0;" parent="Eb2V1ECVx0wj9dN1RO27-24" vertex="1">
                    <mxGeometry y="78" width="200" height="26" as="geometry"/>
                </mxCell>
                <mxCell id="Eb2V1ECVx0wj9dN1RO27-28" value="dataset" style="text;align=left;verticalAlign=top;spacingLeft=4;spacingRight=4;overflow=hidden;rotatable=0;points=[[0,0.5],[1,0.5]];portConstraint=eastwest;rounded=0;shadow=0;html=0;" parent="Eb2V1ECVx0wj9dN1RO27-24" vertex="1">
                    <mxGeometry y="104" width="200" height="26" as="geometry"/>
                </mxCell>
                <mxCell id="Eb2V1ECVx0wj9dN1RO27-29" value="" style="line;html=1;strokeWidth=1;align=left;verticalAlign=middle;spacingTop=-1;spacingLeft=3;spacingRight=3;rotatable=0;labelPosition=right;points=[];portConstraint=eastwest;" parent="Eb2V1ECVx0wj9dN1RO27-24" vertex="1">
                    <mxGeometry y="130" width="200" height="8" as="geometry"/>
                </mxCell>
                <mxCell id="Eb2V1ECVx0wj9dN1RO27-30" value="process()" style="text;align=left;verticalAlign=top;spacingLeft=4;spacingRight=4;overflow=hidden;rotatable=0;points=[[0,0.5],[1,0.5]];portConstraint=eastwest;fontStyle=0" parent="Eb2V1ECVx0wj9dN1RO27-24" vertex="1">
                    <mxGeometry y="138" width="200" height="26" as="geometry"/>
                </mxCell>
                <mxCell id="Eb2V1ECVx0wj9dN1RO27-31" value="_authorize()" style="text;align=left;verticalAlign=top;spacingLeft=4;spacingRight=4;overflow=hidden;rotatable=0;points=[[0,0.5],[1,0.5]];portConstraint=eastwest;fontStyle=0" parent="Eb2V1ECVx0wj9dN1RO27-24" vertex="1">
                    <mxGeometry y="164" width="200" height="26" as="geometry"/>
                </mxCell>
                <mxCell id="Eb2V1ECVx0wj9dN1RO27-32" value="_build()" style="text;align=left;verticalAlign=top;spacingLeft=4;spacingRight=4;overflow=hidden;rotatable=0;points=[[0,0.5],[1,0.5]];portConstraint=eastwest;fontStyle=0" parent="Eb2V1ECVx0wj9dN1RO27-24" vertex="1">
                    <mxGeometry y="190" width="200" height="26" as="geometry"/>
                </mxCell>
                <mxCell id="Eb2V1ECVx0wj9dN1RO27-33" value="_prepare_and_download()" style="text;align=left;verticalAlign=top;spacingLeft=4;spacingRight=4;overflow=hidden;rotatable=0;points=[[0,0.5],[1,0.5]];portConstraint=eastwest;fontStyle=0" parent="Eb2V1ECVx0wj9dN1RO27-24" vertex="1">
                    <mxGeometry y="216" width="200" height="26" as="geometry"/>
                </mxCell>
                <mxCell id="Eb2V1ECVx0wj9dN1RO27-34" value="_post_process()" style="text;align=left;verticalAlign=top;spacingLeft=4;spacingRight=4;overflow=hidden;rotatable=0;points=[[0,0.5],[1,0.5]];portConstraint=eastwest;fontStyle=0" parent="Eb2V1ECVx0wj9dN1RO27-24" vertex="1">
                    <mxGeometry y="242" width="200" height="32" as="geometry"/>
                </mxCell>
                <mxCell id="Eb2V1ECVx0wj9dN1RO27-35" value="DataMetaConfig" style="swimlane;fontStyle=0;align=center;verticalAlign=top;childLayout=stackLayout;horizontal=1;startSize=26;horizontalStack=0;resizeParent=1;resizeLast=0;collapsible=1;marginBottom=0;rounded=0;shadow=0;strokeWidth=1;" parent="1" vertex="1">
                    <mxGeometry x="680" y="180" width="200" height="170" as="geometry">
                        <mxRectangle x="130" y="380" width="160" height="26" as="alternateBounds"/>
                    </mxGeometry>
                </mxCell>
                <mxCell id="Eb2V1ECVx0wj9dN1RO27-36" value=" dataset_scripts&#10; dataset_formation&#10; meta_cache_dir&#10; meta_data_files&#10; zip_data_files&#10; meta_args_map&#10; target_dataset_structure&#10; dataset_py_script&#10; meta_type_map&#10;" style="text;align=left;verticalAlign=top;spacingLeft=4;spacingRight=4;overflow=hidden;rotatable=0;points=[[0,0.5],[1,0.5]];portConstraint=eastwest;" parent="Eb2V1ECVx0wj9dN1RO27-35" vertex="1">
                    <mxGeometry y="26" width="200" height="134" as="geometry"/>
                </mxCell>
                <mxCell id="Eb2V1ECVx0wj9dN1RO27-37" value="" style="line;html=1;strokeWidth=1;align=left;verticalAlign=middle;spacingTop=-1;spacingLeft=3;spacingRight=3;rotatable=0;labelPosition=right;points=[];portConstraint=eastwest;" parent="Eb2V1ECVx0wj9dN1RO27-35" vertex="1">
                    <mxGeometry y="160" width="200" height="8" as="geometry"/>
                </mxCell>
                <mxCell id="Eb2V1ECVx0wj9dN1RO27-38" value="DataDownloadConfig" style="swimlane;fontStyle=0;align=center;verticalAlign=top;childLayout=stackLayout;horizontal=1;startSize=26;horizontalStack=0;resizeParent=1;resizeLast=0;collapsible=1;marginBottom=0;rounded=0;shadow=0;strokeWidth=1;" parent="1" vertex="1">
                    <mxGeometry x="680" y="360" width="200" height="150" as="geometry">
                        <mxRectangle x="130" y="380" width="160" height="26" as="alternateBounds"/>
                    </mxGeometry>
                </mxCell>
                <mxCell id="Eb2V1ECVx0wj9dN1RO27-39" value="dataset_name&#10;namespace&#10;version&#10;split&#10;data_dir&#10;oss_config&#10;meta_args_map" style="text;align=left;verticalAlign=top;spacingLeft=4;spacingRight=4;overflow=hidden;rotatable=0;points=[[0,0.5],[1,0.5]];portConstraint=eastwest;" parent="Eb2V1ECVx0wj9dN1RO27-38" vertex="1">
                    <mxGeometry y="26" width="200" height="114" as="geometry"/>
                </mxCell>
                <mxCell id="Eb2V1ECVx0wj9dN1RO27-40" value="" style="line;html=1;strokeWidth=1;align=left;verticalAlign=middle;spacingTop=-1;spacingLeft=3;spacingRight=3;rotatable=0;labelPosition=right;points=[];portConstraint=eastwest;" parent="Eb2V1ECVx0wj9dN1RO27-38" vertex="1">
                    <mxGeometry y="140" width="200" height="8" as="geometry"/>
                </mxCell>
                <mxCell id="Eb2V1ECVx0wj9dN1RO27-41" value="" style="rounded=0;orthogonalLoop=1;jettySize=auto;html=1;endArrow=diamondThin;endFill=1;endSize=20;startSize=20;entryX=1.006;entryY=1.048;entryDx=0;entryDy=0;entryPerimeter=0;exitX=0;exitY=0.5;exitDx=0;exitDy=0;edgeStyle=orthogonalEdgeStyle;" parent="1" source="Eb2V1ECVx0wj9dN1RO27-36" target="Eb2V1ECVx0wj9dN1RO27-19" edge="1">
                    <mxGeometry relative="1" as="geometry">
                        <Array as="points">
                            <mxPoint x="640" y="243"/>
                            <mxPoint x="640" y="359"/>
                        </Array>
                    </mxGeometry>
                </mxCell>
                <mxCell id="Eb2V1ECVx0wj9dN1RO27-42" value="" style="rounded=0;orthogonalLoop=1;jettySize=auto;html=1;endArrow=diamondThin;endFill=1;endSize=20;startSize=20;entryX=1.003;entryY=0.048;entryDx=0;entryDy=0;entryPerimeter=0;exitX=0;exitY=0.5;exitDx=0;exitDy=0;edgeStyle=orthogonalEdgeStyle;" parent="1" source="Eb2V1ECVx0wj9dN1RO27-39" target="Eb2V1ECVx0wj9dN1RO27-20" edge="1">
                    <mxGeometry relative="1" as="geometry">
                        <mxPoint x="570" y="520" as="sourcePoint"/>
                        <mxPoint x="610" y="355" as="targetPoint"/>
                        <Array as="points">
                            <mxPoint x="640" y="443"/>
                            <mxPoint x="640" y="359"/>
                        </Array>
                    </mxGeometry>
                </mxCell>
                <mxCell id="Eb2V1ECVx0wj9dN1RO27-43" value="DataMetaManager" style="swimlane;fontStyle=0;align=center;verticalAlign=top;childLayout=stackLayout;horizontal=1;startSize=26;horizontalStack=0;resizeParent=1;resizeLast=0;collapsible=1;marginBottom=0;rounded=0;shadow=0;strokeWidth=1;" parent="1" vertex="1">
                    <mxGeometry x="400" y="560" width="200" height="150" as="geometry">
                        <mxRectangle x="130" y="380" width="160" height="26" as="alternateBounds"/>
                    </mxGeometry>
                </mxCell>
                <mxCell id="Eb2V1ECVx0wj9dN1RO27-44" value="dataset_context_config" style="text;align=left;verticalAlign=top;spacingLeft=4;spacingRight=4;overflow=hidden;rotatable=0;points=[[0,0.5],[1,0.5]];portConstraint=eastwest;" parent="Eb2V1ECVx0wj9dN1RO27-43" vertex="1">
                    <mxGeometry y="26" width="200" height="26" as="geometry"/>
                </mxCell>
                <mxCell id="Eb2V1ECVx0wj9dN1RO27-45" value="api: HubApi" style="text;align=left;verticalAlign=top;spacingLeft=4;spacingRight=4;overflow=hidden;rotatable=0;points=[[0,0.5],[1,0.5]];portConstraint=eastwest;rounded=0;shadow=0;html=0;" parent="Eb2V1ECVx0wj9dN1RO27-43" vertex="1">
                    <mxGeometry y="52" width="200" height="26" as="geometry"/>
                </mxCell>
                <mxCell id="Eb2V1ECVx0wj9dN1RO27-46" value="" style="line;html=1;strokeWidth=1;align=left;verticalAlign=middle;spacingTop=-1;spacingLeft=3;spacingRight=3;rotatable=0;labelPosition=right;points=[];portConstraint=eastwest;" parent="Eb2V1ECVx0wj9dN1RO27-43" vertex="1">
                    <mxGeometry y="78" width="200" height="8" as="geometry"/>
                </mxCell>
                <mxCell id="Eb2V1ECVx0wj9dN1RO27-47" value="fetch_meta_files()" style="text;align=left;verticalAlign=top;spacingLeft=4;spacingRight=4;overflow=hidden;rotatable=0;points=[[0,0.5],[1,0.5]];portConstraint=eastwest;fontStyle=0" parent="Eb2V1ECVx0wj9dN1RO27-43" vertex="1">
                    <mxGeometry y="86" width="200" height="26" as="geometry"/>
                </mxCell>
                <mxCell id="Eb2V1ECVx0wj9dN1RO27-48" value="parse_dataset_structure()" style="text;align=left;verticalAlign=top;spacingLeft=4;spacingRight=4;overflow=hidden;rotatable=0;points=[[0,0.5],[1,0.5]];portConstraint=eastwest;fontStyle=0" parent="Eb2V1ECVx0wj9dN1RO27-43" vertex="1">
                    <mxGeometry y="112" width="200" height="26" as="geometry"/>
                </mxCell>
                <mxCell id="Eb2V1ECVx0wj9dN1RO27-49" value="" style="endArrow=none;html=1;rounded=0;entryX=1;entryY=0.5;entryDx=0;entryDy=0;exitX=0.003;exitY=0.942;exitDx=0;exitDy=0;exitPerimeter=0;edgeStyle=orthogonalEdgeStyle;" parent="1" source="Eb2V1ECVx0wj9dN1RO27-45" target="Eb2V1ECVx0wj9dN1RO27-30" edge="1">
                    <mxGeometry width="50" height="50" relative="1" as="geometry">
                        <mxPoint x="590" y="890" as="sourcePoint"/>
                        <mxPoint x="640" y="840" as="targetPoint"/>
                    </mxGeometry>
                </mxCell>
                <mxCell id="Eb2V1ECVx0wj9dN1RO27-50" value="" style="edgeStyle=none;rounded=0;orthogonalLoop=1;jettySize=auto;html=1;entryX=0;entryY=0.25;entryDx=0;entryDy=0;endArrow=none;endFill=0;" parent="1" source="Eb2V1ECVx0wj9dN1RO27-51" target="Eb2V1ECVx0wj9dN1RO27-75" edge="1">
                    <mxGeometry relative="1" as="geometry"/>
                </mxCell>
                <mxCell id="Eb2V1ECVx0wj9dN1RO27-51" value="DataFilesManager" style="swimlane;fontStyle=0;align=center;verticalAlign=top;childLayout=stackLayout;horizontal=1;startSize=26;horizontalStack=0;resizeParent=1;resizeLast=0;collapsible=1;marginBottom=0;rounded=0;shadow=0;strokeWidth=1;" parent="1" vertex="1">
                    <mxGeometry x="400" y="760" width="200" height="210" as="geometry">
                        <mxRectangle x="130" y="380" width="160" height="26" as="alternateBounds"/>
                    </mxGeometry>
                </mxCell>
                <mxCell id="Eb2V1ECVx0wj9dN1RO27-52" value="dataset_context_config" style="text;align=left;verticalAlign=top;spacingLeft=4;spacingRight=4;overflow=hidden;rotatable=0;points=[[0,0.5],[1,0.5]];portConstraint=eastwest;" parent="Eb2V1ECVx0wj9dN1RO27-51" vertex="1">
                    <mxGeometry y="26" width="200" height="26" as="geometry"/>
                </mxCell>
                <mxCell id="Eb2V1ECVx0wj9dN1RO27-53" value="meta_data_files&#10;meta_args_map&#10;zip_data_files&#10;input_config_kwargs&#10;oss_config&#10;" style="text;align=left;verticalAlign=top;spacingLeft=4;spacingRight=4;overflow=hidden;rotatable=0;points=[[0,0.5],[1,0.5]];portConstraint=eastwest;rounded=0;shadow=0;html=0;" parent="Eb2V1ECVx0wj9dN1RO27-51" vertex="1">
                    <mxGeometry y="52" width="200" height="88" as="geometry"/>
                </mxCell>
                <mxCell id="Eb2V1ECVx0wj9dN1RO27-54" value="" style="line;html=1;strokeWidth=1;align=left;verticalAlign=middle;spacingTop=-1;spacingLeft=3;spacingRight=3;rotatable=0;labelPosition=right;points=[];portConstraint=eastwest;" parent="Eb2V1ECVx0wj9dN1RO27-51" vertex="1">
                    <mxGeometry y="140" width="200" height="8" as="geometry"/>
                </mxCell>
                <mxCell id="Eb2V1ECVx0wj9dN1RO27-55" value="get_data_files_builder()" style="text;align=left;verticalAlign=top;spacingLeft=4;spacingRight=4;overflow=hidden;rotatable=0;points=[[0,0.5],[1,0.5]];portConstraint=eastwest;fontStyle=0" parent="Eb2V1ECVx0wj9dN1RO27-51" vertex="1">
                    <mxGeometry y="148" width="200" height="26" as="geometry"/>
                </mxCell>
                <mxCell id="Eb2V1ECVx0wj9dN1RO27-56" value="fetch_data_files()" style="text;align=left;verticalAlign=top;spacingLeft=4;spacingRight=4;overflow=hidden;rotatable=0;points=[[0,0.5],[1,0.5]];portConstraint=eastwest;fontStyle=0" parent="Eb2V1ECVx0wj9dN1RO27-51" vertex="1">
                    <mxGeometry y="174" width="200" height="26" as="geometry"/>
                </mxCell>
                <mxCell id="Eb2V1ECVx0wj9dN1RO27-57" value="" style="endArrow=none;html=1;rounded=0;entryX=1;entryY=0.5;entryDx=0;entryDy=0;exitX=0;exitY=0.5;exitDx=0;exitDy=0;edgeStyle=orthogonalEdgeStyle;" parent="1" source="Eb2V1ECVx0wj9dN1RO27-53" target="Eb2V1ECVx0wj9dN1RO27-30" edge="1">
                    <mxGeometry width="50" height="50" relative="1" as="geometry">
                        <mxPoint x="411" y="646" as="sourcePoint"/>
                        <mxPoint x="330" y="773" as="targetPoint"/>
                    </mxGeometry>
                </mxCell>
                <mxCell id="Eb2V1ECVx0wj9dN1RO27-58" value="" style="endArrow=none;dashed=1;html=1;rounded=0;exitX=0;exitY=0.5;exitDx=0;exitDy=0;entryX=1;entryY=0.5;entryDx=0;entryDy=0;edgeStyle=orthogonalEdgeStyle;curved=1;strokeColor=#FF0000;startArrow=classic;startFill=1;" parent="1" source="Eb2V1ECVx0wj9dN1RO27-56" target="Eb2V1ECVx0wj9dN1RO27-33" edge="1">
                    <mxGeometry width="50" height="50" relative="1" as="geometry">
                        <mxPoint x="510" y="820" as="sourcePoint"/>
                        <mxPoint x="560" y="770" as="targetPoint"/>
                        <Array as="points">
                            <mxPoint x="330" y="947"/>
                            <mxPoint x="330" y="789"/>
                        </Array>
                    </mxGeometry>
                </mxCell>
                <mxCell id="Eb2V1ECVx0wj9dN1RO27-59" value="" style="endArrow=none;dashed=1;html=1;rounded=0;exitX=0;exitY=0.5;exitDx=0;exitDy=0;entryX=1;entryY=0.5;entryDx=0;entryDy=0;fillColor=#f8cecc;strokeColor=#0000FF;edgeStyle=orthogonalEdgeStyle;curved=1;endFill=0;startArrow=classic;startFill=1;" parent="1" source="Eb2V1ECVx0wj9dN1RO27-47" target="Eb2V1ECVx0wj9dN1RO27-32" edge="1">
                    <mxGeometry width="50" height="50" relative="1" as="geometry">
                        <mxPoint x="410" y="957" as="sourcePoint"/>
                        <mxPoint x="330" y="799" as="targetPoint"/>
                        <Array as="points">
                            <mxPoint x="340" y="659"/>
                            <mxPoint x="340" y="763"/>
                        </Array>
                    </mxGeometry>
                </mxCell>
                <mxCell id="Eb2V1ECVx0wj9dN1RO27-60" value="" style="endArrow=none;dashed=1;html=1;rounded=0;exitX=0;exitY=0.5;exitDx=0;exitDy=0;entryX=1;entryY=0.5;entryDx=0;entryDy=0;fillColor=#f8cecc;strokeColor=#0000FF;edgeStyle=orthogonalEdgeStyle;curved=1;startArrow=classic;startFill=1;" parent="1" source="Eb2V1ECVx0wj9dN1RO27-48" target="Eb2V1ECVx0wj9dN1RO27-32" edge="1">
                    <mxGeometry width="50" height="50" relative="1" as="geometry">
                        <mxPoint x="410" y="669" as="sourcePoint"/>
                        <mxPoint x="330" y="773" as="targetPoint"/>
                        <Array as="points">
                            <mxPoint x="350" y="685"/>
                            <mxPoint x="350" y="763"/>
                        </Array>
                    </mxGeometry>
                </mxCell>
                <mxCell id="Eb2V1ECVx0wj9dN1RO27-61" value="" style="endArrow=none;dashed=1;html=1;rounded=0;entryX=1;entryY=0.5;entryDx=0;entryDy=0;fillColor=#f8cecc;strokeColor=#0000FF;exitX=0;exitY=0.5;exitDx=0;exitDy=0;edgeStyle=orthogonalEdgeStyle;curved=1;startArrow=classic;startFill=1;" parent="1" source="Eb2V1ECVx0wj9dN1RO27-55" target="Eb2V1ECVx0wj9dN1RO27-32" edge="1">
                    <mxGeometry width="50" height="50" relative="1" as="geometry">
                        <mxPoint x="390" y="920" as="sourcePoint"/>
                        <mxPoint x="330" y="773" as="targetPoint"/>
                        <Array as="points">
                            <mxPoint x="340" y="921"/>
                            <mxPoint x="340" y="763"/>
                        </Array>
                    </mxGeometry>
                </mxCell>
                <mxCell id="Eb2V1ECVx0wj9dN1RO27-62" value="" style="edgeStyle=none;rounded=0;orthogonalLoop=1;jettySize=auto;html=1;entryX=0.5;entryY=0;entryDx=0;entryDy=0;endArrow=none;endFill=0;" parent="1" source="Eb2V1ECVx0wj9dN1RO27-63" target="Eb2V1ECVx0wj9dN1RO27-75" edge="1">
                    <mxGeometry relative="1" as="geometry"/>
                </mxCell>
                <mxCell id="Eb2V1ECVx0wj9dN1RO27-63" value="CsvDatasetBuilder" style="swimlane;fontStyle=0;align=center;verticalAlign=top;childLayout=stackLayout;horizontal=1;startSize=26;horizontalStack=0;resizeParent=1;resizeLast=0;collapsible=1;marginBottom=0;rounded=0;shadow=0;strokeWidth=1;" parent="1" vertex="1">
                    <mxGeometry x="680" y="600" width="200" height="220" as="geometry">
                        <mxRectangle x="130" y="380" width="160" height="26" as="alternateBounds"/>
                    </mxGeometry>
                </mxCell>
                <mxCell id="Eb2V1ECVx0wj9dN1RO27-64" value="meta_data_files: dict" style="text;align=left;verticalAlign=top;spacingLeft=4;spacingRight=4;overflow=hidden;rotatable=0;points=[[0,0.5],[1,0.5]];portConstraint=eastwest;" parent="Eb2V1ECVx0wj9dN1RO27-63" vertex="1">
                    <mxGeometry y="26" width="200" height="26" as="geometry"/>
                </mxCell>
                <mxCell id="Eb2V1ECVx0wj9dN1RO27-65" value="zip_data_files: dict" style="text;align=left;verticalAlign=top;spacingLeft=4;spacingRight=4;overflow=hidden;rotatable=0;points=[[0,0.5],[1,0.5]];portConstraint=eastwest;" parent="Eb2V1ECVx0wj9dN1RO27-63" vertex="1">
                    <mxGeometry y="52" width="200" height="26" as="geometry"/>
                </mxCell>
                <mxCell id="Eb2V1ECVx0wj9dN1RO27-66" value="input_config_kwargs: dict" style="text;align=left;verticalAlign=top;spacingLeft=4;spacingRight=4;overflow=hidden;rotatable=0;points=[[0,0.5],[1,0.5]];portConstraint=eastwest;" parent="Eb2V1ECVx0wj9dN1RO27-63" vertex="1">
                    <mxGeometry y="78" width="200" height="26" as="geometry"/>
                </mxCell>
                <mxCell id="Eb2V1ECVx0wj9dN1RO27-67" value="" style="line;html=1;strokeWidth=1;align=left;verticalAlign=middle;spacingTop=-1;spacingLeft=3;spacingRight=3;rotatable=0;labelPosition=right;points=[];portConstraint=eastwest;" parent="Eb2V1ECVx0wj9dN1RO27-63" vertex="1">
                    <mxGeometry y="104" width="200" height="8" as="geometry"/>
                </mxCell>
                <mxCell id="Eb2V1ECVx0wj9dN1RO27-68" value="download_and_prepare()" style="text;align=left;verticalAlign=top;spacingLeft=4;spacingRight=4;overflow=hidden;rotatable=0;points=[[0,0.5],[1,0.5]];portConstraint=eastwest;fontStyle=0" parent="Eb2V1ECVx0wj9dN1RO27-63" vertex="1">
                    <mxGeometry y="112" width="200" height="26" as="geometry"/>
                </mxCell>
                <mxCell id="Eb2V1ECVx0wj9dN1RO27-69" value="as_dataset()" style="text;align=left;verticalAlign=top;spacingLeft=4;spacingRight=4;overflow=hidden;rotatable=0;points=[[0,0.5],[1,0.5]];portConstraint=eastwest;fontStyle=0" parent="Eb2V1ECVx0wj9dN1RO27-63" vertex="1">
                    <mxGeometry y="138" width="200" height="26" as="geometry"/>
                </mxCell>
                <mxCell id="Eb2V1ECVx0wj9dN1RO27-70" value="_download_and_prepare()" style="text;align=left;verticalAlign=top;spacingLeft=4;spacingRight=4;overflow=hidden;rotatable=0;points=[[0,0.5],[1,0.5]];portConstraint=eastwest;fontStyle=0" parent="Eb2V1ECVx0wj9dN1RO27-63" vertex="1">
                    <mxGeometry y="164" width="200" height="26" as="geometry"/>
                </mxCell>
                <mxCell id="Eb2V1ECVx0wj9dN1RO27-71" value="" style="rounded=0;orthogonalLoop=1;jettySize=auto;html=1;entryX=1;entryY=0.5;entryDx=0;entryDy=0;fillColor=#d5e8d4;strokeColor=#82b366;dashed=1;exitX=1;exitY=0.5;exitDx=0;exitDy=0;edgeStyle=orthogonalEdgeStyle;curved=1;" parent="Eb2V1ECVx0wj9dN1RO27-63" source="Eb2V1ECVx0wj9dN1RO27-68" target="Eb2V1ECVx0wj9dN1RO27-70" edge="1">
                    <mxGeometry relative="1" as="geometry">
                        <mxPoint x="-70" y="360" as="sourcePoint"/>
                        <mxPoint x="10" y="161" as="targetPoint"/>
                    </mxGeometry>
                </mxCell>
                <mxCell id="Eb2V1ECVx0wj9dN1RO27-72" value="_convert_csv_to_dataset()" style="text;align=left;verticalAlign=top;spacingLeft=4;spacingRight=4;overflow=hidden;rotatable=0;points=[[0,0.5],[1,0.5]];portConstraint=eastwest;fontStyle=0" parent="Eb2V1ECVx0wj9dN1RO27-63" vertex="1">
                    <mxGeometry y="190" width="200" height="26" as="geometry"/>
                </mxCell>
                <mxCell id="Eb2V1ECVx0wj9dN1RO27-73" value="" style="rounded=0;orthogonalLoop=1;jettySize=auto;html=1;fillColor=#0050ef;strokeColor=#001DBC;dashed=1;exitX=0;exitY=0.5;exitDx=0;exitDy=0;elbow=vertical;entryX=0;entryY=0.5;entryDx=0;entryDy=0;" parent="Eb2V1ECVx0wj9dN1RO27-63" source="Eb2V1ECVx0wj9dN1RO27-69" target="Eb2V1ECVx0wj9dN1RO27-72" edge="1">
                    <mxGeometry relative="1" as="geometry">
                        <mxPoint x="210" y="135" as="sourcePoint"/>
                        <mxPoint y="210" as="targetPoint"/>
                        <Array as="points">
                            <mxPoint x="-20" y="160"/>
                            <mxPoint x="-20" y="180"/>
                            <mxPoint x="-20" y="190"/>
                        </Array>
                    </mxGeometry>
                </mxCell>
                <mxCell id="Eb2V1ECVx0wj9dN1RO27-74" value="" style="edgeStyle=orthogonalEdgeStyle;rounded=0;orthogonalLoop=1;jettySize=auto;html=1;entryX=0;entryY=0.5;entryDx=0;entryDy=0;exitX=1;exitY=0.5;exitDx=0;exitDy=0;exitPerimeter=0;endArrow=block;endFill=0;endSize=15;startSize=15;" parent="1" source="Eb2V1ECVx0wj9dN1RO27-76" target="Eb2V1ECVx0wj9dN1RO27-83" edge="1">
                    <mxGeometry relative="1" as="geometry">
                        <mxPoint x="950" y="891" as="targetPoint"/>
                    </mxGeometry>
                </mxCell>
                <mxCell id="Eb2V1ECVx0wj9dN1RO27-75" value="DataDownloadManager" style="swimlane;fontStyle=0;align=center;verticalAlign=top;childLayout=stackLayout;horizontal=1;startSize=26;horizontalStack=0;resizeParent=1;resizeLast=0;collapsible=1;marginBottom=0;rounded=0;shadow=0;strokeWidth=1;" parent="1" vertex="1">
                    <mxGeometry x="680" y="850" width="200" height="60" as="geometry">
                        <mxRectangle x="130" y="380" width="160" height="26" as="alternateBounds"/>
                    </mxGeometry>
                </mxCell>
                <mxCell id="Eb2V1ECVx0wj9dN1RO27-76" value="" style="line;html=1;strokeWidth=1;align=left;verticalAlign=middle;spacingTop=-1;spacingLeft=3;spacingRight=3;rotatable=0;labelPosition=right;points=[];portConstraint=eastwest;" parent="Eb2V1ECVx0wj9dN1RO27-75" vertex="1">
                    <mxGeometry y="26" width="200" height="8" as="geometry"/>
                </mxCell>
                <mxCell id="Eb2V1ECVx0wj9dN1RO27-77" value="_download()" style="text;align=left;verticalAlign=top;spacingLeft=4;spacingRight=4;overflow=hidden;rotatable=0;points=[[0,0.5],[1,0.5]];portConstraint=eastwest;fontStyle=0" parent="Eb2V1ECVx0wj9dN1RO27-75" vertex="1">
                    <mxGeometry y="34" width="200" height="26" as="geometry"/>
                </mxCell>
                <mxCell id="Eb2V1ECVx0wj9dN1RO27-78" value="DataDownloadManager" style="swimlane;fontStyle=0;align=center;verticalAlign=top;childLayout=stackLayout;horizontal=1;startSize=26;horizontalStack=0;resizeParent=1;resizeLast=0;collapsible=1;marginBottom=0;rounded=0;shadow=0;strokeWidth=1;" parent="1" vertex="1">
                    <mxGeometry x="960" y="670" width="200" height="300" as="geometry">
                        <mxRectangle x="130" y="380" width="160" height="26" as="alternateBounds"/>
                    </mxGeometry>
                </mxCell>
                <mxCell id="Eb2V1ECVx0wj9dN1RO27-79" value="download_config: DownloadConfig" style="text;align=left;verticalAlign=top;spacingLeft=4;spacingRight=4;overflow=hidden;rotatable=0;points=[[0,0.5],[1,0.5]];portConstraint=eastwest;" parent="Eb2V1ECVx0wj9dN1RO27-78" vertex="1">
                    <mxGeometry y="26" width="200" height="26" as="geometry"/>
                </mxCell>
                <mxCell id="Eb2V1ECVx0wj9dN1RO27-80" value="downloaded_paths: dict" style="text;align=left;verticalAlign=top;spacingLeft=4;spacingRight=4;overflow=hidden;rotatable=0;points=[[0,0.5],[1,0.5]];portConstraint=eastwest;" parent="Eb2V1ECVx0wj9dN1RO27-78" vertex="1">
                    <mxGeometry y="52" width="200" height="26" as="geometry"/>
                </mxCell>
                <mxCell id="Eb2V1ECVx0wj9dN1RO27-81" value="extracted_paths: dict" style="text;align=left;verticalAlign=top;spacingLeft=4;spacingRight=4;overflow=hidden;rotatable=0;points=[[0,0.5],[1,0.5]];portConstraint=eastwest;" parent="Eb2V1ECVx0wj9dN1RO27-78" vertex="1">
                    <mxGeometry y="78" width="200" height="26" as="geometry"/>
                </mxCell>
                <mxCell id="Eb2V1ECVx0wj9dN1RO27-82" value="_dataset_name: str" style="text;align=left;verticalAlign=top;spacingLeft=4;spacingRight=4;overflow=hidden;rotatable=0;points=[[0,0.5],[1,0.5]];portConstraint=eastwest;" parent="Eb2V1ECVx0wj9dN1RO27-78" vertex="1">
                    <mxGeometry y="104" width="200" height="26" as="geometry"/>
                </mxCell>
                <mxCell id="Eb2V1ECVx0wj9dN1RO27-83" value="_data_dir: str" style="text;align=left;verticalAlign=top;spacingLeft=4;spacingRight=4;overflow=hidden;rotatable=0;points=[[0,0.5],[1,0.5]];portConstraint=eastwest;" parent="Eb2V1ECVx0wj9dN1RO27-78" vertex="1">
                    <mxGeometry y="130" width="200" height="26" as="geometry"/>
                </mxCell>
                <mxCell id="Eb2V1ECVx0wj9dN1RO27-84" value="_base_path: str" style="text;align=left;verticalAlign=top;spacingLeft=4;spacingRight=4;overflow=hidden;rotatable=0;points=[[0,0.5],[1,0.5]];portConstraint=eastwest;" parent="Eb2V1ECVx0wj9dN1RO27-78" vertex="1">
                    <mxGeometry y="156" width="200" height="26" as="geometry"/>
                </mxCell>
                <mxCell id="Eb2V1ECVx0wj9dN1RO27-85" value="" style="line;html=1;strokeWidth=1;align=left;verticalAlign=middle;spacingTop=-1;spacingLeft=3;spacingRight=3;rotatable=0;labelPosition=right;points=[];portConstraint=eastwest;" parent="Eb2V1ECVx0wj9dN1RO27-78" vertex="1">
                    <mxGeometry y="182" width="200" height="8" as="geometry"/>
                </mxCell>
                <mxCell id="Eb2V1ECVx0wj9dN1RO27-86" value="download_and_extract()" style="text;align=left;verticalAlign=top;spacingLeft=4;spacingRight=4;overflow=hidden;rotatable=0;points=[[0,0.5],[1,0.5]];portConstraint=eastwest;fontStyle=0" parent="Eb2V1ECVx0wj9dN1RO27-78" vertex="1">
                    <mxGeometry y="190" width="200" height="26" as="geometry"/>
                </mxCell>
                <mxCell id="Eb2V1ECVx0wj9dN1RO27-87" value="download()" style="text;align=left;verticalAlign=top;spacingLeft=4;spacingRight=4;overflow=hidden;rotatable=0;points=[[0,0.5],[1,0.5]];portConstraint=eastwest;fontStyle=0" parent="Eb2V1ECVx0wj9dN1RO27-78" vertex="1">
                    <mxGeometry y="216" width="200" height="26" as="geometry"/>
                </mxCell>
                <mxCell id="Eb2V1ECVx0wj9dN1RO27-88" value="extract()" style="text;align=left;verticalAlign=top;spacingLeft=4;spacingRight=4;overflow=hidden;rotatable=0;points=[[0,0.5],[1,0.5]];portConstraint=eastwest;fontStyle=0" parent="Eb2V1ECVx0wj9dN1RO27-78" vertex="1">
                    <mxGeometry y="242" width="200" height="26" as="geometry"/>
                </mxCell>
                <mxCell id="Eb2V1ECVx0wj9dN1RO27-89" value="_download()" style="text;align=left;verticalAlign=top;spacingLeft=4;spacingRight=4;overflow=hidden;rotatable=0;points=[[0,0.5],[1,0.5]];portConstraint=eastwest;fontStyle=0" parent="Eb2V1ECVx0wj9dN1RO27-78" vertex="1">
                    <mxGeometry y="268" width="200" height="26" as="geometry"/>
                </mxCell>
                <mxCell id="Eb2V1ECVx0wj9dN1RO27-90" value="" style="rounded=0;orthogonalLoop=1;jettySize=auto;html=1;entryX=1;entryY=0.5;entryDx=0;entryDy=0;fillColor=#d5e8d4;strokeColor=#82b366;dashed=1;exitX=1;exitY=0.5;exitDx=0;exitDy=0;edgeStyle=orthogonalEdgeStyle;curved=1;" parent="Eb2V1ECVx0wj9dN1RO27-78" source="Eb2V1ECVx0wj9dN1RO27-86" target="Eb2V1ECVx0wj9dN1RO27-88" edge="1">
                    <mxGeometry relative="1" as="geometry">
                        <mxPoint x="-70" y="-8" as="sourcePoint"/>
                        <mxPoint x="10" y="213" as="targetPoint"/>
                    </mxGeometry>
                </mxCell>
                <mxCell id="Eb2V1ECVx0wj9dN1RO27-91" value="" style="rounded=0;orthogonalLoop=1;jettySize=auto;html=1;fillColor=#d5e8d4;strokeColor=#82b366;dashed=1;exitX=1;exitY=0.5;exitDx=0;exitDy=0;edgeStyle=elbowEdgeStyle;" parent="Eb2V1ECVx0wj9dN1RO27-78" source="Eb2V1ECVx0wj9dN1RO27-88" edge="1">
                    <mxGeometry relative="1" as="geometry">
                        <mxPoint x="210" y="213" as="sourcePoint"/>
                        <mxPoint x="200" y="229" as="targetPoint"/>
                        <Array as="points">
                            <mxPoint x="210" y="240"/>
                        </Array>
                    </mxGeometry>
                </mxCell>
                <mxCell id="Eb2V1ECVx0wj9dN1RO27-92" value="" style="edgeStyle=none;rounded=0;orthogonalLoop=1;jettySize=auto;html=1;endArrow=diamondThin;endFill=1;endSize=20;" parent="1" source="Eb2V1ECVx0wj9dN1RO27-93" edge="1">
                    <mxGeometry relative="1" as="geometry">
                        <mxPoint x="1060" y="670" as="targetPoint"/>
                    </mxGeometry>
                </mxCell>
                <mxCell id="Eb2V1ECVx0wj9dN1RO27-93" value="DownloadConfig" style="swimlane;fontStyle=0;align=center;verticalAlign=top;childLayout=stackLayout;horizontal=1;startSize=26;horizontalStack=0;resizeParent=1;resizeLast=0;collapsible=1;marginBottom=0;rounded=0;shadow=0;strokeWidth=1;" parent="1" vertex="1">
                    <mxGeometry x="960" y="320" width="200" height="260" as="geometry">
                        <mxRectangle x="130" y="380" width="160" height="26" as="alternateBounds"/>
                    </mxGeometry>
                </mxCell>
                <mxCell id="Eb2V1ECVx0wj9dN1RO27-94" value="cache_dir&#10;force_download&#10;resume_download&#10;local_files_only&#10;proxies&#10;user_agent&#10;extract_compressed_file&#10;force_extract&#10;delete_extracted&#10;use_etag&#10;num_proc&#10;max_retries&#10;use_auth_token&#10;ignore_url_params&#10;download_desc&#10;" style="text;align=left;verticalAlign=top;spacingLeft=4;spacingRight=4;overflow=hidden;rotatable=0;points=[[0,0.5],[1,0.5]];portConstraint=eastwest;" parent="Eb2V1ECVx0wj9dN1RO27-93" vertex="1">
                    <mxGeometry y="26" width="200" height="224" as="geometry"/>
                </mxCell>
                <mxCell id="Eb2V1ECVx0wj9dN1RO27-95" value="" style="line;html=1;strokeWidth=1;align=left;verticalAlign=middle;spacingTop=-1;spacingLeft=3;spacingRight=3;rotatable=0;labelPosition=right;points=[];portConstraint=eastwest;" parent="Eb2V1ECVx0wj9dN1RO27-93" vertex="1">
                    <mxGeometry y="250" width="200" height="8" as="geometry"/>
                </mxCell>
                <mxCell id="Eb2V1ECVx0wj9dN1RO27-96" value="" style="edgeStyle=none;rounded=0;orthogonalLoop=1;jettySize=auto;html=1;entryX=0.005;entryY=0.426;entryDx=0;entryDy=0;entryPerimeter=0;endArrow=block;endFill=0;endSize=15;startSize=15;" parent="1" source="Eb2V1ECVx0wj9dN1RO27-39" target="Eb2V1ECVx0wj9dN1RO27-94" edge="1">
                    <mxGeometry relative="1" as="geometry"/>
                </mxCell>
                <mxCell id="Eb2V1ECVx0wj9dN1RO27-97" value="" style="rounded=0;orthogonalLoop=1;jettySize=auto;html=1;exitX=1;exitY=0.5;exitDx=0;exitDy=0;entryX=0;entryY=0.5;entryDx=0;entryDy=0;fillColor=#d5e8d4;strokeColor=#82b366;dashed=1;edgeStyle=orthogonalEdgeStyle;curved=1;" parent="1" source="Eb2V1ECVx0wj9dN1RO27-56" target="Eb2V1ECVx0wj9dN1RO27-68" edge="1">
                    <mxGeometry relative="1" as="geometry">
                        <mxPoint x="800" y="970" as="targetPoint"/>
                        <Array as="points">
                            <mxPoint x="610" y="947"/>
                            <mxPoint x="610" y="725"/>
                        </Array>
                    </mxGeometry>
                </mxCell>
                <mxCell id="Eb2V1ECVx0wj9dN1RO27-98" value="" style="rounded=0;orthogonalLoop=1;jettySize=auto;html=1;entryX=0;entryY=0.5;entryDx=0;entryDy=0;fillColor=#0050ef;strokeColor=#001DBC;dashed=1;edgeStyle=orthogonalEdgeStyle;curved=1;" parent="1" target="Eb2V1ECVx0wj9dN1RO27-69" edge="1">
                    <mxGeometry relative="1" as="geometry">
                        <mxPoint x="600" y="950" as="sourcePoint"/>
                        <mxPoint x="690" y="735" as="targetPoint"/>
                        <Array as="points">
                            <mxPoint x="620" y="950"/>
                            <mxPoint x="620" y="751"/>
                        </Array>
                    </mxGeometry>
                </mxCell>
                <mxCell id="Eb2V1ECVx0wj9dN1RO27-99" value="" style="rounded=0;orthogonalLoop=1;jettySize=auto;html=1;entryX=0;entryY=0.5;entryDx=0;entryDy=0;fillColor=#d5e8d4;strokeColor=#82b366;dashed=1;exitX=1;exitY=0.5;exitDx=0;exitDy=0;edgeStyle=orthogonalEdgeStyle;curved=1;" parent="1" source="Eb2V1ECVx0wj9dN1RO27-70" target="Eb2V1ECVx0wj9dN1RO27-86" edge="1">
                    <mxGeometry relative="1" as="geometry">
                        <mxPoint x="890" y="735" as="sourcePoint"/>
                        <mxPoint x="890" y="787" as="targetPoint"/>
                        <Array as="points">
                            <mxPoint x="890" y="777"/>
                            <mxPoint x="890" y="873"/>
                        </Array>
                    </mxGeometry>
                </mxCell>
                <mxCell id="Eb2V1ECVx0wj9dN1RO27-100" value="" style="rounded=0;orthogonalLoop=1;jettySize=auto;html=1;entryX=1;entryY=0.5;entryDx=0;entryDy=0;fillColor=#d5e8d4;strokeColor=#82b366;dashed=1;exitX=0;exitY=0.5;exitDx=0;exitDy=0;elbow=vertical;" parent="1" source="Eb2V1ECVx0wj9dN1RO27-87" target="Eb2V1ECVx0wj9dN1RO27-77" edge="1">
                    <mxGeometry relative="1" as="geometry">
                        <mxPoint x="970" y="1060" as="sourcePoint"/>
                        <mxPoint x="970" y="1034" as="targetPoint"/>
                    </mxGeometry>
                </mxCell>
                <mxCell id="Eb2V1ECVx0wj9dN1RO27-101" value="" style="endArrow=none;html=1;strokeWidth=1;rounded=0;fillColor=#fff2cc;strokeColor=#666666;dashed=1;" parent="1" edge="1">
                    <mxGeometry width="50" height="50" relative="1" as="geometry">
                        <mxPoint x="640" y="1000" as="sourcePoint"/>
                        <mxPoint x="640" y="560" as="targetPoint"/>
                    </mxGeometry>
                </mxCell>
                <mxCell id="Eb2V1ECVx0wj9dN1RO27-102" value="" style="endArrow=none;html=1;strokeWidth=1;rounded=0;fillColor=#fff2cc;strokeColor=#666666;dashed=1;" parent="1" edge="1">
                    <mxGeometry width="50" height="50" relative="1" as="geometry">
                        <mxPoint x="920" y="560" as="sourcePoint"/>
                        <mxPoint x="640" y="560" as="targetPoint"/>
                    </mxGeometry>
                </mxCell>
                <mxCell id="Eb2V1ECVx0wj9dN1RO27-103" value="" style="endArrow=none;html=1;strokeWidth=1;rounded=0;fillColor=#fff2cc;strokeColor=#666666;dashed=1;" parent="1" edge="1">
                    <mxGeometry width="50" height="50" relative="1" as="geometry">
                        <mxPoint x="920" y="560" as="sourcePoint"/>
                        <mxPoint x="920" y="300" as="targetPoint"/>
                    </mxGeometry>
                </mxCell>
                <mxCell id="Eb2V1ECVx0wj9dN1RO27-104" value="" style="endArrow=none;html=1;strokeWidth=1;rounded=0;fillColor=#fff2cc;strokeColor=#666666;dashed=1;" parent="1" edge="1">
                    <mxGeometry width="50" height="50" relative="1" as="geometry">
                        <mxPoint x="1200" y="300" as="sourcePoint"/>
                        <mxPoint x="920" y="300" as="targetPoint"/>
                    </mxGeometry>
                </mxCell>
                <mxCell id="Eb2V1ECVx0wj9dN1RO27-105" value="" style="endArrow=none;html=1;strokeWidth=1;rounded=0;fillColor=#fff2cc;strokeColor=#666666;dashed=1;" parent="1" edge="1">
                    <mxGeometry width="50" height="50" relative="1" as="geometry">
                        <mxPoint x="1200" y="300" as="sourcePoint"/>
                        <mxPoint x="1200" y="1000" as="targetPoint"/>
                    </mxGeometry>
                </mxCell>
                <mxCell id="Eb2V1ECVx0wj9dN1RO27-106" value="" style="endArrow=none;html=1;strokeWidth=1;rounded=0;fillColor=#fff2cc;strokeColor=#666666;dashed=1;" parent="1" edge="1">
                    <mxGeometry width="50" height="50" relative="1" as="geometry">
                        <mxPoint x="1200" y="1000" as="sourcePoint"/>
                        <mxPoint x="640" y="1000" as="targetPoint"/>
                    </mxGeometry>
                </mxCell>
                <mxCell id="4aSmwWHDCuVfqe-Nd0Yk-2" value="" style="shape=flexArrow;endArrow=classic;html=1;rounded=1;fontFamily=Helvetica;fontSize=12;" parent="1" edge="1">
                    <mxGeometry width="50" height="50" relative="1" as="geometry">
                        <mxPoint x="390" y="530" as="sourcePoint"/>
                        <mxPoint x="330" y="480" as="targetPoint"/>
                    </mxGeometry>
                </mxCell>
            </root>
        </mxGraphModel>
    </diagram>
</mxfile>